<?xml version="1.0" encoding="UTF-8"?>
<svg version="1.1" viewBox="0 0 700 700" xmlns="http://www.w3.org/2000/svg">
  <path
    d="m350 46.668c-128.65 0-233.33 104.67-233.33 233.33s104.68 233.33 233.33 233.33 233.33-104.67 233.33-233.33-104.68-233.33-233.33-233.33zm112.32 165.22-116.67 163.33c-3.9883 5.5859-10.23 9.1289-17.066 9.6992-0.64062 0.054687-1.2773 0.078125-1.9141 0.078125-6.1523 0-12.102-2.4375-16.496-6.8359l-70-70c-9.1133-9.1133-9.1133-23.879 0-32.996 9.1133-9.1133 23.879-9.1133 32.996 0l50.52 50.52 100.67-140.91c7.4961-10.469 22.082-12.887 32.539-5.4336 10.473 7.4922 12.914 22.066 5.418 32.547z" />
</svg>