<svg xmlns="http://www.w3.org/2000/svg" viewBox="0 0 479.17 335.39"><g data-name="Layer 2"><g data-name="Layer 1"><circle cx="252.55" cy="167.69" r="167.69" fill="#dbe8ec"/><path d="M479.17 132.6v-18.11a13 13 0 00-13-13h-46a13 13 0 01-13-13V70.34a13 13 0 0113-13h1.45a13 13 0 0013-13V26.19a13 13 0 00-13-13H87.72a13 13 0 00-13 13V44.3a13 13 0 0013 13 13 13 0 0113 13v18.15a13 13 0 01-13 13H37.37a13 13 0 00-13 13v18.15a13 13 0 0013 13h19.75a13 13 0 0113 13v18.11a13 13 0 01-13 13 13 13 0 00-13 13v18.19a13 13 0 0013 13h2.85a13 13 0 0113 13v18.11a13 13 0 01-13 13H13a13 13 0 00-13 13v18.19a13 13 0 0013 13h415.63a13 13 0 0013-13v-18.11a13 13 0 00-13-13h-11.29a13 13 0 01-13-13v-18.15a13 13 0 0113-13H444a13 13 0 0013-13v-18.15a13 13 0 00-13-13h-8.08a13 13 0 01-13-13v-18.15a13 13 0 0113-13h30.27a13 13 0 0013-13z" fill="#dbe8ec"/><path fill="none" stroke="#b9d4db" stroke-linecap="round" stroke-miterlimit="10" stroke-width="3" d="M299.36 3.85h32.3M299.36 13.16h32.3M299.36 22.48h32.3M33.74 201.6h32.3M33.74 210.91h32.3M33.74 220.22h32.3M420.25 286.93h32.3M420.25 296.24h32.3M420.25 305.55h32.3"/><circle cx="461.36" cy="114.04" r="13.81" fill="#b9d4db"/><circle cx="424.93" cy="124.01" r="7.16" fill="#b9d4db"/><circle cx="443.11" cy="80.26" r="10.23" fill="#b9d4db"/><circle cx="78.96" cy="301.1" r="16.43" fill="#b9d4db"/><circle cx="46.48" cy="309.29" r="8.56" transform="rotate(-85.93 46.495 309.305)" fill="#b9d4db"/><circle cx="36.43" cy="280.89" r="4.94" fill="#b9d4db"/><circle cx="60.9" cy="268.24" r="11.83" fill="#b9d4db"/><circle cx="165.01" cy="47.16" r="16.43" transform="rotate(-80.78 165.02 47.158)" fill="#b9d4db"/><circle cx="165.68" cy="13.66" r="8.56" fill="#b9d4db"/><circle cx="222.67" cy="18.66" r="7.41" fill="#b9d4db"/><circle cx="195.73" cy="11.47" r="4.94" fill="#b9d4db"/><circle cx="201.47" cy="38.41" r="11.83" fill="#b9d4db"/><path fill="#e06714" d="M398.55 203.26l-109.21 58.82V128.64l109.21-34.09v108.71z"/><path d="M289.34 128.64l-128.92-13L134 76.62a3 3 0 01.8-4.17 3.08 3.08 0 011.69-.51h121.43a3 3 0 012.66 1.61z" fill="#f9ae2b"/><path d="M160.42 249l-45-9.37a3 3 0 01-2.39-2.93V109.43a3 3 0 013-3 3.08 3.08 0 01.61.06l43.81 9.11zM332.8 276.55l-43.46-14.47V128.64l45.36 15.11a3 3 0 012.05 2.84v127.12a3 3 0 01-3 3 2.83 2.83 0 01-.95-.16z" fill="#f9ae2b"/><path fill="#409cb5" d="M289.34 262.08l-128.93-13.04V115.6l128.93 13.04v133.44z"/><path d="M256.55 297.79L125 292.54 160.42 249l128.92 13-30.41 34.69a3 3 0 01-2.38 1.1z" fill="#f9ae2b"/><path fill="#ee781d" d="M289.34 128.64l109.21-34.09-133.49-12.43 24.28 46.52z"/><path fill="#25788e" d="M160.41 249.04l128.93-60.2v-60.2L160.41 115.6v133.44z"/><path d="M168.15 205.56s14.08-6.16 17.82-1.76 12.11 6.38 12.11 6.38l7.26-12.33 19.8 9.25 10.79 14.74-7 17.39s-14.31-.22-21.13 2.64-24.69 3.13-24.69 3.13L175 229.33s-10.38-15.19-6.85-23.77z" fill="#dbe8ec"/><path d="M198.08 210.18c1.35 1.2 2.65 2.44 3.93 3.71s2.52 2.56 3.76 3.85 2.47 2.6 3.65 3.95 2.4 2.66 3.55 4l-2.54 1.31c-.57-2.39-1.14-4.78-1.65-7.19s-1-4.83-1.43-7.24c-.85-4.86-1.64-9.72-2-14.69 1.79 4.64 3.17 9.38 4.5 14.12.62 2.39 1.26 4.76 1.82 7.16s1.1 4.8 1.61 7.2a1.45 1.45 0 01-1.12 1.73 1.47 1.47 0 01-1.42-.49c-1.14-1.38-2.23-2.8-3.33-4.21s-2.17-2.86-3.25-4.29-2.11-2.9-3.12-4.38-2.04-3-2.96-4.54z" fill="#bad5db"/><path d="M225.14 207.1c-.84 1.81-1.78 3.55-2.72 5.29s-1.94 3.45-3 5.13-2.07 3.36-3.11 5-2.17 3.3-3.25 4.94l-1.53-2.3q3-.62 6-1.14c2-.32 4-.7 6.07-1s4.06-.55 6.1-.78 4.09-.4 6.17-.47c-1.94.74-3.91 1.33-5.87 1.94s-3.95 1.13-5.94 1.63-4 1-6 1.45-4 .87-6 1.26a1.49 1.49 0 01-1.5-2.32c1.14-1.61 2.24-3.24 3.4-4.83s2.31-3.2 3.53-4.75 2.44-3.11 3.68-4.65 2.6-2.95 3.97-4.4z" fill="#bad5db"/><path d="M228.89 239.23c-1.63-.77-3.17-1.66-4.71-2.54s-3-1.82-4.52-2.79c-3-1.9-5.87-3.94-8.7-6l2.17-.43c-1.71 2.79-3.49 5.54-5.39 8.21-.93 1.35-1.92 2.67-2.91 4s-2 2.6-3.16 3.83c.58-1.57 1.26-3.07 1.94-4.57s1.41-3 2.17-4.42c1.49-2.93 3.11-5.77 4.79-8.58a1.48 1.48 0 012-.51l.11.07c2.84 2.09 5.64 4.24 8.34 6.53 1.35 1.13 2.68 2.31 4 3.5s2.65 2.37 3.87 3.7z" fill="#bad5db"/><path d="M168.15 205.56c7.6 2.85 15 6.1 22.4 9.39 3.68 1.69 7.37 3.36 11 5.11s7.29 3.5 10.92 5.29a1.45 1.45 0 01.66 2 1.53 1.53 0 01-.52.58c-2.4 1.52-4.84 3-7.26 4.45s-4.89 2.9-7.33 4.36-4.91 2.85-7.41 4.22-5 2.73-7.52 4c2.26-1.74 4.54-3.45 6.85-5.1s4.63-3.3 7-4.93 4.67-3.24 7-4.8 4.72-3.17 7.11-4.69l.15 2.53c-3.66-1.73-7.31-3.46-10.93-5.26s-7.24-3.61-10.85-5.44c-7.16-3.75-14.31-7.54-21.27-11.71z" fill="#bad5db"/><path d="M174.07 227.92a43.89 43.89 0 007.38-3.62 15 15 0 005.28-5.29 12.36 12.36 0 001.14-7.23 42.13 42.13 0 00-1.9-8 18.66 18.66 0 014.22 7.54 12.28 12.28 0 01-.82 9.08 13.81 13.81 0 01-6.82 6 18.71 18.71 0 01-8.48 1.52zM196.56 219.27a32.67 32.67 0 01-1.05 6.07 56.11 56.11 0 01-1.85 5.77 59.2 59.2 0 01-2.45 5.53 32.88 32.88 0 01-3.26 5.23 33 33 0 011.05-6.07 52.94 52.94 0 011.86-5.76 53.58 53.58 0 012.45-5.54 33.56 33.56 0 013.25-5.23z" fill="#bad5db"/><path d="M167.41 278.11s-10.72 11-15.85 8.34-13.56-1.36-13.56-1.36l-2.09 14.16-21.91-1.11-15.54-9.6v-18.76s13.33-5.18 18.58-10.4 21.67-12.13 21.67-12.13l13.43 11.41s15.31 10.17 15.27 19.45z" fill="#c0d8dd"/><path d="M138 285.09c-3.33-1.36-6.58-2.88-9.82-4.41-1.6-.79-3.22-1.55-4.82-2.37s-3.2-1.6-4.78-2.44l1.25-1.41c2.86 4 5.63 8.08 8.34 12.18s5.32 8.29 7.74 12.61c-3.21-3.77-6.19-7.69-9.14-11.63s-5.77-8-8.53-12.05a1 1 0 011.26-1.4c1.58.84 3.13 1.73 4.7 2.6s3.1 1.78 4.66 2.67c3.02 1.81 6.14 3.66 9.14 5.65z" fill="#9fc6cc"/><path d="M114 298.14c.43-3.94 1-7.84 1.72-11.72s1.45-7.76 2.26-11.61l1.52 1-5.14 3.34c-1.74 1.08-3.46 2.19-5.22 3.24s-3.51 2.11-5.28 3.14-3.57 2-5.4 3c1.58-1.32 3.22-2.56 4.85-3.8s3.29-2.44 5-3.62 3.36-2.35 5-3.52l5.11-3.42a1 1 0 011.37.28 1 1 0 01.15.76c-.85 3.85-1.72 7.7-2.7 11.52s-1.99 7.64-3.24 11.41z" fill="#9fc6cc"/><path d="M98.47 269.78c1.76.21 3.51.52 5.25.82s3.48.66 5.2 1c3.46.72 6.89 1.55 10.31 2.42l-1.23.81c.28-1.61.53-3.23.84-4.84s.6-3.22.94-4.82c.67-3.21 1.4-6.41 2.31-9.58-.12 3.3-.43 6.56-.8 9.82-.17 1.63-.4 3.25-.61 4.87s-.48 3.24-.72 4.86a1 1 0 01-1.11.83h-.1c-3.42-.87-6.83-1.79-10.21-2.81q-2.53-.76-5.06-1.6c-1.68-.56-3.36-1.12-5.01-1.78z" fill="#9fc6cc"/><path d="M167.41 278.11c-4 0-8.09-.13-12.14-.23s-8.08-.29-12.13-.47q-12.14-.59-24.22-1.41a1 1 0 01-.89-1 1 1 0 01.17-.5c1.65-2.31 3.35-4.59 5-6.88s3.38-4.56 5.07-6.84 3.42-4.54 5.17-6.78 3.48-4.5 5.27-6.7c-1.49 2.42-3.06 4.79-4.6 7.18s-3.13 4.74-4.7 7.11-3.17 4.71-4.79 7-3.21 4.68-4.86 7l-.72-1.53q12.11.69 24.2 1.66c4 .34 8.06.68 12.09 1.08s8.06.81 12.08 1.31z" fill="#9fc6cc"/><path d="M153.51 259.62a36.12 36.12 0 00-5.78 5.88 14.53 14.53 0 00-3.09 7.09 10 10 0 00.31 3.78 13.81 13.81 0 001.51 3.61 35.89 35.89 0 005.1 6.47 20.18 20.18 0 01-6.4-5.62 12.22 12.22 0 01-2.51-8.45 14 14 0 013.89-7.88 20.59 20.59 0 016.97-4.88zM135.93 276.1a45.47 45.47 0 01-.91-6c-.19-2-.32-4-.36-6s0-4 .09-6a45.81 45.81 0 01.65-6.06 47.17 47.17 0 01.91 6q.28 3 .35 6c.05 2 0 4-.09 6.05a47.53 47.53 0 01-.64 6.01z" fill="#9fc6cc"/></g></g></svg>