<?xml version="1.0" encoding="utf-8"?>
<!-- Generator: Adobe Illustrator 25.0.0, SVG Export Plug-In . SVG Version: 6.00 Build 0)  -->
<svg version="1.1" id="Layer_1" xmlns="http://www.w3.org/2000/svg" xmlns:xlink="http://www.w3.org/1999/xlink" x="0px" y="0px"
	 viewBox="0 0 337.9 339.4" style="enable-background:new 0 0 337.9 339.4;" xml:space="preserve">
<style type="text/css">
	.st0{fill:#E7EEFD;}
	.st1{fill:#E4EAFC;}
	.st2{fill:#1B1090;}
	.st3{fill:#E0E7FC;}
	.st4{fill:#FD786C;}
	.st5{fill:#90B2F9;}
	.st6{fill:#0F0766;}
	.st7{fill:#FB7164;}
	.st8{fill:#4D50F7;}
	.st9{fill:#4A4DF3;}
	.st10{fill:#474AEE;}
	.st11{fill:#F4B0B4;}
	.st12{fill:#FB7F76;}
	.st13{fill:#4F53FC;}
	.st14{fill:#B0C0FD;}
</style>
<g>
	<path class="st0" d="M79,27.7c6.1-3.7,12.1-7.6,18.5-10.8c13.3-6.8,27.6-11.4,42.3-13.9c11.7-2.1,23.5-2.8,35.4-2.2
		c9.6,0.5,19.2,1.7,28.6,3.6c10,2.1,19.9,4.9,29.5,8.4c4.6,1.7,8.9,3.9,13.4,5.9c0.1,0,0.2,0.1,0.3,0.2c0.8,2,1.7,2.8,4.3,2.5
		c2-0.2,4.3,1.7,6.5,2.7c-1.8,2.2-3,5.3-6.6,4.8c-2.5-0.4-2.6,1.5-3.3,2.9c-0.7,1.4-1.1,2.8,0.7,3.8c1.5,0.8,1.8,2.2,1.7,3.8
		c0,1.3,0.1,2.6,0.3,3.8c-0.5,0.6-1.1,1.1-1.8,1.6c-2.8,1.6-0.6,3.4-0.4,5.2c0.2,1.9,1.7,1.5,3,1.7c0.2,2.1-0.5,2.8-2.5,1.7
		c-1.6-0.8-3.2-0.2-2.7,1.6c0.7,3-0.2,4.3-3.1,4.6c-0.6,0.1-0.9,0.7-1.3,1.2c-1.6,1.8-2.3,4.6-5.5,4.4c-0.3,0-0.8,0.6-0.9,1
		c-1.7,4.1-5,5.8-9.3,6c-0.1,0-0.3,0-0.4-0.1c0.1-0.3-0.2-0.6-0.5-0.7h-0.1h0.1c0-0.5-0.3-0.9-0.8-1.1l-0.6-0.6l-0.6-0.6l-0.6-0.6
		l-0.6-0.6l-0.6-0.6l-1.1-0.9v-1.8c0.2-2.9,2.1-6.3,0.6-8.4s-5.1-2.8-7.6-4.4s-4.1-1-5.8,1.1c-2.5,3.3-5.5,5.1-9.9,3.7
		c-2-0.6-4.4-0.2-6.5-0.2c-1.1,0.1-2.1-0.4-2.8-1.3c-1.8-2.1-2.8-5.7-5.3-6.1s-5.4,1.4-8.2,2.3c-0.1,0-0.2,0.1-0.3,0.1
		c-2.7,0.3-3.4,1.9-3.4,4.5s1,5.8-1.3,8.2c-1.7,0.2-2.7,1.3-3.6,2.5l-0.7,0.6v-0.1c-0.6,0.1-1,0.6-1.2,1.2c-1.3,0.7-2.3,1.7-3,3
		c-2.8,0.2-5.4-0.6-8.1-0.8c-1-0.1-2.2-0.8-2.7,0.8c-0.6,1.1-1.3,2.2-1.8,3.4c-3.4,6.7-3.4,6.8,2,12.2c1.2,1,1.7,2.6,1.3,4.2
		c-0.7,3.2-0.9,6.5-0.5,9.8c0,0.9-0.3,1.7-0.8,2.4c-1.8,0.4-2.6,2.6-4.6,2.6h-2.5c-6.2-0.3-12.4-0.3-18.6,0
		c-0.2-0.1-0.4-0.1-0.6-0.1l-0.6-0.7c0-1.5-0.9-2.6-1.5-3.9c-3.8-7.5-7.5-14.9-11.5-22.3c-4.2-7.8-8.4-15.6-13.2-23l-0.7-1.2
		c0-0.8-0.5-1.5-1.3-1.8c-2-3.3-3.9-6.7-6-9.9C86,37.8,82.5,32.8,79,27.7L79,27.7z"/>
	<path class="st1" d="M226,72.1c4.2-0.2,7.5-1.9,9.3-6c0.2-0.4,0.6-1,0.9-1c3.2,0.2,4-2.6,5.5-4.4c0.4-0.4,0.6-1.1,1.3-1.2
		c2.9-0.3,3.8-1.6,3.1-4.6c-0.4-1.7,1.1-2.4,2.7-1.6c2.1,1.1,2.7,0.3,2.5-1.7c2.9-0.2,7.1,3.1,6.8,5.7c-0.2,1.9,0.1,3.1,2.1,3.9
		s3.5,1.1,5.1-1c1.2-1.8,6.9-1.8,8.3-0.1c1.2,1.3,2.1,2.4,4.2,1.3c1.9-1,3.6-1.7,2.9-4.3c-0.2-1.1,0.2-2.2,1.2-2.8
		c1.1-1,2.1-2.1,3-3.3c1.7-0.3,3.5,0.9,5.1-0.7c4.6,4.2,8.8,8.9,12.3,14c6.8,9.2,12.7,19,17.4,29.4c3.1,6.9,5.8,14.1,8.1,21.3
		c2.4,7.9,4.3,15.8,5.8,23.9c1.9,10.4,3.3,20.8,2.9,31.4c-1.4-0.1-1.7-1.1-1.9-2.2c-0.1-0.8-0.7-1.5-1.5-1.7c-0.8-0.1-1.6,0.3-2,1
		c-2.5,3.3-6.8,4.7-10.8,3.6l0.1-4.2c0.8-1.5,0.9-3.3,0.1-4.8l0.5-42.2c0.1-5.7-3.6-9.7-9.3-9.9c-17.5-0.5-35.1-0.9-52.6-1.4h-1.5
		l-0.8-0.2c-1.5-0.6-3.1-0.6-4.6-0.1h-3.1c-0.1-0.3-0.3-0.3-0.5,0l-13.9-0.4c0.1-4.4,1.3-8.8,0.5-13.2l0.1-0.6l1.3-1.2
		c3.9-2.7,8.2-5.2,4.5-11l-0.3-0.5c-0.1-0.7-0.1-1.4-0.7-1.8c0.1-0.6-0.1-1.2-0.6-1.5l0.1-0.2c0-0.5,0-1.1-0.7-1.3l-0.7-0.6
		c0.9-2.3,0-3.1-2.3-2.9c-1,0.1-2,0-3,0c-1.8,0.1-2.8,0.9-2.5,2.8l-1.2,0.2C227.7,75.2,226.6,73.7,226,72.1L226,72.1z"/>
	<path class="st2" d="M2.4,306.4c0-4.5,0.1-9-0.1-13.5c-0.1-1.8,0.5-2.5,2.3-2.4c3.5,0.1,7,0.1,10.5,0c0.9,0,2,0.6,2.6-0.7
		c1,0.4,2.1,0.6,3.2,0.6h238.2c0.5,5.2,1.4,10.3,1.3,15.5H6.7c-1.3,0-2.6-0.4-3.8,0.4C2.8,306.4,2.6,306.4,2.4,306.4z"/>
	<path class="st3" d="M2.4,306.4h0.5c0.7,0.1,1.4,0.2,2.1,0.2h255.7l0.3,7.1c-13.1,6.9-27,12-41.4,15.2c-8.4,2-16.9,3.4-25.5,4.1
		c-7.8,0.6-15.5,1.4-23.2,1.1c-14-0.5-27.9-1.5-41.7-4.5c-10.5-2.3-21-4.6-31.2-7.9c-10.5-3.5-20.6-8-30.2-13.4
		c-1.4-0.8-2.9-1.2-4.5-1.1H5.7C4.6,307.1,3.3,307.8,2.4,306.4L2.4,306.4z"/>
	<path class="st4" d="M79,27.7c3.4,5.1,7,10.1,10.3,15.3c2.1,3.2,4,6.6,6,9.9c0,0.9,0,1.8,1.3,1.8l0.7,1.2c-2.1,3-5.1,3.5-8.5,3.1
		c-1.2-0.1-2.1,0.6-3.1,1.3c-2.3,1.5-4.9,3.7-7.4,3.8c-5.1,0.3-9.3,3.1-14.2,3.9l-5.9-17c0.5,4.4,1.3,8.8,2.3,13.1
		c1.2,6.1,3.5,12,4.4,18.2l0.5,0.7l0.1,0.6c-1.3,1-2.6,1.8-3.2-0.7c-0.2-1.2-1.3-2.2-2.6-2.1c-1.2,0-2.1,0.8-2.3,2
		c-0.3,1.1-1.3,2.2-2.3,2c-5.5-1.2-6.1,5.5-10.3,6.2c-0.2,0-0.3,0.5-0.3,0.8c0.1,2.1-1.1,3-2.9,3.6c-0.9,0.3-1.5,1.2-1.3,2.1
		c0.1,1.1,0.9,1.1,1.7,1.2c1.7,0.2,2.1,1,1.1,2.4c-0.7,1-5.5,1.8-6.8,1c-1.6-0.9-1-2.5-0.6-3.7c0.6-1.9,0-2.7-1.8-2.7
		c-0.1-2.2-0.1-4.4-0.2-6.6c0.2-0.4,0.6-0.9,0.6-1.3V68.2c0-0.4-0.4-0.9-0.6-1.3v-9.5c1-2.9,0.4-6.1,1.3-9.1c4.4,0.7,7.9-2,11.7-3.3
		c0.7-0.2,0.8-1.1,0.8-1.8c-0.2-2.2,1-2.8,3-2.6c1.5,0.1,3,0,4.5,0c0.8,0,1.8-0.2,2-1c0.8-4,4.1-4.1,7.1-4.3c2-0.1,3.7-0.1,4.4-2.5
		c0.3-0.9,1.1-1.6,2-1.6c3.4,0.2,5.4-2.2,7.9-3.8C78.4,27.4,79,27.7,79,27.7z M38.2,91.2c0-0.6-0.1-1-0.7-1s-0.9,0.4-0.9,0.9
		s0,1.1,0.7,1.1S38.1,91.7,38.2,91.2z"/>
	<path class="st5" d="M33.5,57.1v9.5c-0.9,1.8-0.5,3.7-0.5,5.6c0.1,5.6-0.6,11.1,0.5,16.6c0.1,2.2,0.1,4.4,0.2,6.6l-0.2,3
		c-0.1,0.6,0.2,1.4-0.5,2.1c-3.4-4.3-5.3-9.5-8.7-13.8c1.4,5.7,4.8,10.5,6.8,15.9h-5.7c-8.2,0.2-14.1,6.8-13.3,15.1c0,4,0,8,0.1,12
		c-2.6-0.3-1.1-3.2-2.6-4.2l-0.3-2.4L9,122.5c-4.1-15.9-6.6-32.2-7.3-48.7c-0.4-8.2-0.4-16.3,0.1-24.5c0.1-3.2,1.9-6,4.8-7.4
		c2.8-1.5,6.3-1.2,8.8,0.8C21.5,47.2,27.5,52.2,33.5,57.1L33.5,57.1z M22.5,84.2c0.4,0.6,0.6,1,0.8,1.1c0.6,0.3,0.6-0.3,0.5-0.6
		s-0.3-0.6-0.6-0.8C23.1,83.8,22.8,84.1,22.5,84.2z"/>
	<path class="st6" d="M259.1,290.4H21c-1.1,0-2.2-0.2-3.2-0.6c-1.7-1.3-1.8-3.2-1.8-5.1c-0.3-11.5-0.7-23-1-34.6
		c0-1.1,0.1-2.2,0.1-3.2c-0.1-8.7-0.3-17.4-0.5-26.1c1.6,0.5,0.9,1.8,1,2.8c0.1,5,0,10.1,0,15.1c1-3,0.1-6.2,1-9.5
		c1.9,2.5,2.1,5.1,2.3,7.8c0.3-3.6,0.3-7.2,0.1-10.8c-0.9-8.8-0.2-17.5-0.3-26.3c0-0.2,0.3-0.5,0.4-0.7l2,79.7
		c0.2,5.5,1.8,7.1,7.2,7.1h230.1L259.1,290.4L259.1,290.4z M16.3,263.8l0.3,0.1v-14.3h-0.3V263.8z M320.3,166.8l-0.1,4.2
		c-0.3,17.5-0.6,34.9-1,52.4c0,1.5,0.8,1.8,2,2.1c2.9,0.7,5.8,1.6,8.6,2.4c1.4,0.9,2.9,1.7,4.2,2.8c4.2,3.4,4.7,7.7,2.9,12.5
		l-0.5,0.1c0-1.1,0.2-2.2,0.4-3.2c0.2-1.5,0.7-3.2-0.5-4.6c-2.6-2.8-5.3-5.2-9.2-6.3c-8.7-2.6-17.8-3.8-26.6-5.9
		c-2.9-0.7-5.6-1.6-5.7,3c0,0.2-0.4,0.4-0.6,0.5c0.8-2.2-0.2-4.6,0.8-6.8c4.8,1,9.6,2,14.3,3.2c2.3,0.6,2.9-0.2,2.9-2.5
		c0.4-30.4,0.9-60.9,1.3-91.3c0.1-7.4-4.7-12.7-12-13c-20.1-0.7-40.3-1.1-60.4-1.6l0.1-0.2c3.9-1.1,7.9-0.2,11.8-0.5
		c1.1-0.1,2.4,0.5,3.3-0.8c1,1,1.8,0.9,2.3-0.6c0.5-1.3,0.6-2.6,0.5-4c17.5,0.5,35.1,0.9,52.6,1.4c5.7,0.2,9.4,4.1,9.3,9.9
		c-0.2,14.1-0.3,28.1-0.5,42.2L320.3,166.8L320.3,166.8z M319.5,132.2l-0.3-0.1v25.6h0.3V132.2z M280,110.3V110h-19.6v0.3H280z"/>
	<path class="st1" d="M14.6,220.8c0.2,8.7,0.3,17.4,0.5,26.1c0,1.1,0,2.2-0.1,3.2c-1.4-0.1-1.6-1.4-2-2.3c-4.6-10.6-8-21.7-10.1-33
		c-2.3-12.2-3.3-24.7-2.8-37.1c0.4-11.6,1.9-23.1,4.4-34.5c1.3-6.1,3-12.1,5.2-17.9c1.5,1,0,3.9,2.6,4.2l0.2,0.9
		c-0.5,0.8,0,1.6-0.1,2.4c-0.5,0.8-0.5,1.8,0,2.6l0.4,9.6l0.1,1.3c-0.1,0.1-0.2,0.2-0.1,0.4l0.1,0.1l0.3,19.2l0.2,4.9l1,46.8
		L14.6,220.8L14.6,220.8z"/>
	<path class="st7" d="M78.1,27c-2.4,1.6-4.5,4-7.8,3.8c-0.9,0.1-1.7,0.7-2,1.6c-0.7,2.4-2.3,2.4-4.4,2.5c-3,0.2-6.3,0.3-7.1,4.3
		c-0.2,0.9-1.1,1-2,1c-1.5,0-3,0.1-4.5,0c-1.9-0.1-3.1,0.4-3,2.6c0,0.7,0,1.6-0.8,1.8c-3.8,1.3-7.3,4.1-11.7,3.3
		c-0.2-1.5,0.3-2.8,0.6-4.2c0.5-0.3,0.6-0.7,0.1-1.1c1.4-12.2,3.8-24.2,7.2-36c2-7,11-8.8,16.2-3.4c2.5,2.6,4.8,5.3,7.1,8.1
		c3.5,4.3,6.8,8.7,10.2,13.1c-1.1,0.1-2.3,0.6-1.8,1.8c0.6,1.4,1.4-0.4,2.1-0.4c0.2,0,0.4,0,0.6-0.1L78.1,27L78.1,27z M36.9,44.9
		c-0.2-0.1-0.4-0.2-0.5-0.2s-0.2,0.3-0.2,0.5c0.2,0.1,0.4,0.2,0.5,0.2S36.8,45,36.9,44.9z"/>
	<path class="st8" d="M289.9,50.4c-1.5,1.5-3.4,0.4-5.1,0.7c-1.3-1.7-3.2-3-2.2-5.6c-0.3-0.2-0.6-0.4-1-0.5c0-2.2,1.5-4.5-0.3-6.8
		c0.5,2.9-0.9,5.4-1.4,8.1c-0.8,0.3-1.2,1-1.2,1.8l-0.6,0.6l-0.6,0.6c-4.2,3-9.6,3.7-14.4,1.8c-0.4-1-1.4-1.5-2.4-1.2
		c0.1-0.9-0.3-1.3-1.2-1.2c0.2-0.8-0.2-1.3-0.5-1.9c-3.3-5.8-2.7-10.6,1.9-15.5c0.4-0.4,1-0.7,0.8-1.4c-4.2,1.8-6.2,6.6-5.6,13.4
		c-1.7-1.5-0.2-3.6-1-5.3c-0.8,0.3-0.6,1.9-1.8,1.5s-1-1.4-1-2.2c0-0.7,0.1-1.6-0.9-1.5s-0.3,1-0.4,1.6c-0.2,2,1,4.1-0.7,5.9
		c-0.2-1.3-0.3-2.6-0.3-3.8c0.1-1.7-0.2-3-1.7-3.8c-1.8-1-1.4-2.3-0.7-3.8c0.7-1.5,0.9-3.3,3.3-2.9c3.6,0.5,4.8-2.7,6.6-4.8
		c-0.1-1-0.1-2-0.2-3v-0.6l0.2-0.1c0.4,0.1,0.5-0.1,0.5-0.4c2.5-1.5,4.7-2.6,7,0.6c1.7,2.2,6,1.7,7.9-0.7c1.4-1.8,2.6-1.8,4.5-1
		s3,1.7,2.5,4s1.7,2.9,2.8,4.2s2,3.4,4.6,1.8c1-0.6,2.2,0.6,2.5,1.9c0.3,1.3,1.9,2.6,0.1,4.2c-2.7,2.5-3,6.7-0.5,9.4
		c0.2,0.2,0.3,0.4,0.5,0.5C292.8,46.9,289.9,48.5,289.9,50.4L289.9,50.4z M272.3,43.9l0.6-0.6c2-2.7,1.9-5.2-0.4-7.2
		c-2-1.7-4.4-1.6-6.5,0.3l-0.6,0.6c-2.2,2.1-1.9,4.2,0.1,6.3l0.6,0.6C268.2,45.6,270.3,45.7,272.3,43.9L272.3,43.9z M276.2,29.6
		c-4.1-3.5-10.5-3.5-13.6,0C266.9,27.6,271.9,27.6,276.2,29.6z"/>
	<path class="st3" d="M329.9,227.8c-2.9-0.8-5.7-1.6-8.6-2.4c-1.1-0.3-2-0.6-2-2.1c0.4-17.5,0.7-34.9,1-52.4c4,1.2,8.3-0.2,10.8-3.6
		c0.4-0.7,1.2-1.1,2-1c0.8,0.2,1.4,0.9,1.5,1.7c0.1,1.2,0.4,2.2,1.9,2.2c0,8.4,0.4,16.8-0.7,25c-1,9.3-2.7,18.4-4.9,27.5
		C330.5,224.5,330.2,226.2,329.9,227.8L329.9,227.8z"/>
	<path class="st8" d="M299.7,319.8l-4.9-13.2l-0.8-0.8c-1.5-5.4-4-10.3-6.2-15.4c-0.6-1.5-1.2-2.9-1.8-4.4c-3-6.7-5.9-13.5-8.9-20.2
		c0.5-0.3,0.2-0.5-0.1-0.6c-0.1-0.1-0.1-0.2,0-0.3c0-0.3,0-0.6,0.1-0.9c2.7-0.2,3.4,0.4,2.7,2.5c-0.3,0.9-0.2,1.8,0.6,2
		c1.9,0.6,1.6,4.5,5.6,2.4c3.2-1.7,4.9-1,6.7-3.3c0.4,1,0.8,2,1.1,3.1c1.7,5.1,2.7,10.4,4.7,15.4c0.1,1.5,0.5,3.1,1.2,4.4
		c1.3,5.5,2.5,10.9,4.3,16.2c0.1,3,1.3,5.7,1.9,8.6c0.2,1.1,0.8,2.3-0.1,3.4L299.7,319.8L299.7,319.8z"/>
	<path class="st2" d="M304,306.7c-1.8-5.3-3-10.8-4.3-16.2c2.3,0,4.5,0,6.8-0.1c3.3-0.2,6.7,0.6,10-0.5c0.6,1.2,1.8,0.7,2.6,0.7
		c4,0.1,7.9,0.1,11.9,0c1.5,0,2.1,0.4,2,2c-0.1,4.4-0.1,8.9-0.2,13.4v-14.1c-0.6,3.8-0.8,7.7-0.6,11.6c0.1,2.2-0.7,2.7-2.8,2.7
		c-7.5-0.1-14.9-0.1-22.4,0C306.2,306,305,305.6,304,306.7z"/>
	<path class="st8" d="M259.1,290.4l-0.5-4.4l-0.1-4c0.8-1,1.1-1.9-0.4-2.4c0-0.8-0.1-1.6-0.2-2.4c0.5-0.2,0.7-0.7,0.5-1.2
		c-0.2-0.4-0.4-0.1-0.6,0.1c-0.8-1.6-0.6-3.3-0.9-4.9c1.8,1.5,2.3,5.4,6.1,3.1c0.1-0.1,0.7,0.2,0.7,0.4c0.8,3.3,3.9,2.7,6,3.7v4.8
		c-1.6,0.9-1.5,1.7,0.1,2.4l1.2,0.3c-2,1.1-0.9,2.9-1.1,4.5l-0.5,15.6v0.7l-0.7,9.7c-0.1,1.1,0.1,2.2-1.2,2.8h-5.3
		c-1.5-1.6-0.3-3.7-1.1-5.4l-0.3-7.1c-0.1-0.2-0.2-0.5-0.3-0.7C260.4,300.7,259.6,295.5,259.1,290.4L259.1,290.4z"/>
	<path class="st6" d="M316.5,289.8c-3.3,1.1-6.6,0.3-10,0.5c-2.3,0.1-4.5,0.1-6.8,0.1c-0.8-1.3-1.2-2.9-1.2-4.4l1-0.1h0.2
		c1.7,0,3.4,0.1,5.1,0c4.8-0.1,6.4-1.8,6.5-6.5c0.2-9.1,0.4-18.3,0.6-27.5c2.4,0.1,4.6,1.5,7.1,1.4c0,0.3-0.5,0.6,0,0.9
		c-0.1,9.8-0.3,19.7-0.4,29.5v0.7C318.6,286.5,318.4,288.5,316.5,289.8L316.5,289.8z"/>
	<path class="st9" d="M267.3,324.2c0.7,2.1,1.5,4.2,1.3,6.5c-0.9,0.9-2,1.5-3.2,1.8c-2.7,0.9-5.5-0.2-8.2,1h-10
		c-0.2-0.6,0.1-1.1,0.4-1.7h0.1l1.2-0.6l-0.1,0.1l0.6-0.6l0.1-0.1l0.1,0.1l2.1-1.2l0.6-0.6c0.4-0.2,1-0.1,1.2-0.7
		c2.5-2.1,5.5-3.1,8.5-4.3C263.5,325.3,265.8,325.4,267.3,324.2L267.3,324.2z"/>
	<path class="st10" d="M306.5,325.2c2.4,1.8,3.4,4.6,4.6,7.1c-3.4,1.3-6.9,0.2-10.3,0.7c-1.3-2.3,0.3-4.4,0.3-6.6
		C303.1,326.8,305.3,328.2,306.5,325.2z"/>
	<path class="st11" d="M306.5,325.2c-1.2,3.1-3.4,1.7-5.4,1.2c-0.1-2.3-0.6-4.5-1.4-6.6l6.1-1.2C306,320.8,306.3,323,306.5,325.2
		L306.5,325.2z M267.3,324.2c-1.6,1.3-3.9,1.1-5.3-0.4v-4.6h5.3V324.2z"/>
	<path class="st6" d="M304.1,306.5c0.9-1,2.1-0.5,3.1-0.6c7.5,0,14.9-0.1,22.4,0c2,0,2.8-0.5,2.8-2.7c-0.2-3.9,0-7.8,0.6-11.6v14.2
		c-0.2,1.1-1,0.7-1.6,0.7C322.2,306.6,313.1,306.6,304.1,306.5z"/>
	<path class="st2" d="M257.3,333.5c2.6-1.1,5.5-0.1,8.2-1c1.2-0.3,2.3-1,3.2-1.8c0.6,2.2-0.6,2.8-2.5,2.9l-8.9,0.5L257.3,333.5
		L257.3,333.5z"/>
	<path class="st6" d="M269.3,306.6v-0.7l24.8-0.2l0.8,0.8L269.3,306.6L269.3,306.6z"/>
	<path class="st10" d="M318.9,254.2c-0.5-0.3,0-0.6,0-0.9c4.6,1.1,9.1,1.1,13.4-1.4l0.2,0.3c-3.2,2.5-6.9,2.5-10.7,2.2
		C320.9,254.4,319.9,253.8,318.9,254.2z"/>
	<path class="st2" d="M300.9,333c3.4-0.5,6.9,0.6,10.3-0.7c0,0.4,0,0.7-0.1,1.1C307.7,333.7,304.2,335.1,300.9,333L300.9,333z"/>
	<path class="st6" d="M257.3,333.5l0.1,0.6c-3.5,0.1-6.9,0.2-10.4,0.2c-0.6,0-1.5,0.4-1.5-0.8L257.3,333.5L257.3,333.5z"/>
	<path class="st10" d="M336.5,243.2l0.5-0.1c-0.2,1.9-0.7,3.8-1.5,5.5c-0.1-0.1-0.2-0.1-0.3-0.2
		C335.7,246.7,336.1,244.9,336.5,243.2L336.5,243.2z"/>
	<path class="st4" d="M77.3,25.8c-0.2,0-0.4,0.1-0.6,0.1c-0.8,0-1.5,1.8-2.1,0.4c-0.6-1.2,0.7-1.6,1.8-1.8
		C76.8,24.8,77.1,25.3,77.3,25.8L77.3,25.8z"/>
	<path class="st2" d="M247.2,333.4h-1.8c0.6-0.8,1.3-1.4,2.3-1.7C247.4,332.3,247,332.8,247.2,333.4z M251.9,329.3l-2.1,1.3
		C250.2,329.8,251,329.3,251.9,329.3z"/>
	<path class="st10" d="M318.5,284.4v-0.7c0.1,0.2,0.1,0.3,0.1,0.5C318.6,284.3,318.5,284.3,318.5,284.4z M335.5,248.6l-0.6,1.2
		l-0.3-0.2l0.6-1.2C335.3,248.5,335.4,248.5,335.5,248.6z"/>
	<path class="st10" d="M334.9,249.8c-0.3,0.4-0.5,0.7-0.8,1.1l-0.1-0.1l0.6-1.2L334.9,249.8z M333.6,251.5l-1.1,0.8l-0.2-0.3
		l1.2-0.6L333.6,251.5z"/>
	<path class="st4" d="M35.5,42.7c0.5,0.4,0.4,0.8-0.1,1.1C35.5,43.4,35.5,43.1,35.5,42.7z"/>
	<path class="st2" d="M253.6,328.1c-0.2,0.6-0.8,0.5-1.2,0.7L253.6,328.1z M248.9,331.1l-1.2,0.6L248.9,331.1z"/>
	<path class="st10" d="M334.1,250.9l-0.6,0.6l-0.1-0.1l0.6-0.6L334.1,250.9z"/>
	<path class="st0" d="M257.7,20.4V21c-0.1-0.1-0.1-0.3-0.1-0.4C257.5,20.5,257.6,20.5,257.7,20.4z"/>
	<path class="st1" d="M8.9,122.4l0.3,0.6L8.9,122.4z"/>
	<path class="st0" d="M258.4,19.8c0,0.4-0.2,0.5-0.5,0.4L258.4,19.8z"/>
	<path class="st2" d="M252.4,328.7l-0.6,0.6C251.8,328.9,252.1,328.8,252.4,328.7z M249.4,330.6l-0.6,0.6L249.4,330.6z"/>
	<path class="st12" d="M64,67.9c4.8-0.8,9.1-3.6,14.2-3.9c2.6-0.2,5.1-2.3,7.4-3.8c1-0.7,1.9-1.4,3.1-1.3c3.4,0.4,6.4,0,8.5-3.1
		c4.9,7.4,9,15.2,13.3,23c4,7.4,7.7,14.8,11.5,22.3c0.6,1.2,1.5,2.4,1.5,3.9l-19-0.1c-1.5-0.1-2.9-0.3-4.4-0.4
		c-7.6-0.2-15.3,0-22.9-0.7c-2.6-6.6-5.3-13.2-7.8-19.9C67.5,78.6,65,73.5,64,67.9L64,67.9z"/>
	<path class="st13" d="M240.6,81.6l0.3,0.5c3.7,5.8-0.6,8.3-4.5,11c-2.1-2.4-4.6-2.7-7.8-2.2c-3.8,0.6-8,1.4-10.9-2.6
		c-1.2-1.6-3.1-2.3-5-1.9c-1.7,0.1-3.4,0.1-5.1-0.1c-1.2-0.1-2.9-1.3-3.5,0.1s1.1,2.8,2,4c0.3,0.4,1,0.5,1.6,0.8
		c1.1,0.5,1.2,1.6,1.3,2.5c0.1,0.8-0.5,1.5-1.3,1.6h-0.1c-1.4,0-1.7,1.2-2.5,1.9h-0.6c0-0.7,0.1-1.4-0.6-1.8c-0.1-0.1-0.1-0.2,0-0.3
		c0-0.6,0-1.1-0.6-1.4c0.1-0.5-0.2-1-0.6-1.2c0.1-0.8-0.3-1.2-1.1-1.2l-0.8-0.9c1.1-3.1,1.1-3.1-2.4-2.7c-0.6,0.1-1.2,0.1-1.7,0.1
		c-0.7-1-1.7-0.6-2.6-0.6c0,0.1-0.2,0.1-0.3,0.1c-0.6-0.9-1.2-1-1.8,0c-0.9,0-1.8-0.4-2.4,0.6c-0.5-0.1-1,0.1-1.2,0.6
		c-0.5,0-1,0.1-1.2,0.6l-0.6,0.6l-0.6,0.5c-3.4,0.4-2.7-2.4-3.3-4.2s-0.7-3.5,0.9-4.7c1.4-1.1,3.3-1.2,4.8-0.3
		c3.5,1.8,7.4,0.7,11.4,1.9c-0.5-1-1.5-1.6-2.6-1.6c-1.2,0-2.3-1-2.3-2.2c-0.2-1.3-1.4-2.3-2.7-2.1h-0.1c-1,0.1-2-0.3-2.6-1.1
		c-1.1-1.4-2-2.6-4.1-1.2c-1.3,0.8-3.2,0.6-3.1,3c0,1.2-0.9,1.9-2.4,1.3c-1.8-0.7-3.1-0.3-4.2,1.6c-0.7,1.4-2.4,2-3.9,1.5
		c0.1-0.1,0.2-0.2,0.3-0.2l0.7-1c0-0.2,0.2-0.4,0.4-0.4l0.9-0.6l0.6-0.9c0.8-1.2,2-2.2,3.4-2.8l0.8-0.6c0.5,0.1,1.1-0.2,1.3-0.7
		c1.1-0.9,2.5-1.5,3.9-1.8c0.8,0,1.6,0.2,2.1-0.7l0.2,0.1l9.8-1l0.7,0.2c0.1,0.5,0.2,0.7,0.6,0.2l1.1,0.1c0.2,0.3,0.4,0.4,0.6,0.1
		l1.2,0.4c0.3,0.6,0.7,0.8,1.2,0.2l0.7,0.3c0.2,0.6,0.7,0.7,1.2,0.7c0.4,0.8,1.1,0.7,1.8,0.7c0.3,0.8,1,1.3,1.8,1.2
		c0.8,0,1.1,0.8,1.6,1.2s1.3,1.7,2.2,0.5c0.7-0.9-0.3-1.6-0.9-1.9c-5.8-3.8-12.1-6-19.2-5.3c-6.4,0.6-12.4,3.2-17.3,7.5
		c-1.1,0-2.1-0.1-1.7-1.7c0.2-0.9,0.3-1.7,0.4-2.6c0.1-0.9,0.1-1.8,1.2-2.2c0.8-0.3,1.6,0.1,2,0.8c0.4,0.6,1.3,1.2,1.7,0.6
		c0.9-1.2,0.8-2.8-0.1-3.9c-0.8-1-2.1-1.8-3.1,0c-0.6,1.2-1.8,1.6-2.8,0.9c-1.9-1.4-3.4-1.3-5.2,0.2c-0.5,0.4-1.5,1.1-2.4,0.4
		l0.6-1.7c1,0.2,1.4-0.2,1.2-1.2v0.1l0.6-0.6c1.9,0.2,3.2-0.5,3.6-2.5c2.3-2.4,1.4-5.4,1.3-8.2s0.6-4.2,3.4-4.5
		c0.1,0,0.2-0.1,0.3-0.1c2.8-0.9,5.6-2.7,8.2-2.3s3.6,4,5.3,6.1c0.6,0.9,1.7,1.4,2.8,1.3c2.2-0.1,4.5-0.4,6.5,0.2
		c4.5,1.4,7.4-0.4,9.9-3.7c1.6-2.1,3.3-2.8,5.8-1.1s6.1,2.2,7.6,4.4s-0.4,5.5-0.6,8.4v1.8c0,0.6,0.5,0.9,1.1,0.9l0.6,0.6l0.6,0.6
		l0.6,0.6l0.6,0.6l0.6,0.6c0,0.5,0.1,1,0.8,1.1h-0.1l0.6,0.7c0.1,0.1,0.3,0.1,0.4,0.1c0.7,1.6,1.8,3.1,3.2,4.2
		c3.2,1.1,6.4,0.4,9.6,0.4c-0.2,0.5,0.1,1.1,0.7,1.3l-0.1,0.2c0,0.6-0.1,1.2,0.6,1.5C239.9,80.5,239.7,81.2,240.6,81.6L240.6,81.6z
		 M212.3,70.8c0-1.3-0.9-2.5-2.2-2.8c-0.5-0.2-1.1,0.1-1.3,0.6c-0.1,0.2-0.1,0.4,0,0.6c0.3,1.3,0.9,2.7,2.4,3.1
		C211.9,72.5,212.2,71.6,212.3,70.8z"/>
	<path class="st9" d="M145.8,105.7c2,0,2.8-2.2,4.6-2.6c1.2,3.7,2.6,4.5,5.8,3c1.3-0.6,2.1,0.1,2.9,0.8c2.2,1.7,4.5,3.1,7,4.2
		l1.3,0.6l1.2,1.7c5.1,7.6,12,12.2,21.2,13.4c6.1,0.8,11.6-1,17.1-3.2c0.1,1.8,1.5,1.5,2.7,1.9c2.5,0.8,5.8,0.3,7.5,2.5
		c0.8,1.1,2.2,1.8,3.6,1.7c-4.7,2.9-6.5,7.1-5.5,12.5c0.2,1.4-0.4,2.2-1.8,2.6c-2.4,0.6-4.7,1.5-7,2.5c-2.4,1.2-4,0.5-5.2-1.6
		c-2.2-4.2-5.3-6.2-10.1-5.3c-0.9,0.1-1.8,0-2.7-0.3c-3.4-1.1-5.9-0.2-8.3,2.5c-3.6,4-3.8,3.8-8.5,1.4c-1.6-0.8-3.2-1.7-4.8-2.4
		c-1.4-0.6-1.9-1.4-1.5-3c1.5-5.1,0.9-9.8-4.1-13c-0.4-0.3-0.8-0.7-1-1.1c-1.6-3.7-4.6-4.3-8.2-4.1c-4.9,0.3-4.8,0.1-6.4-4.9
		c-0.5-1.6-0.8-3.4-2.9-3.6c0.4-0.2,1.1-0.2,1.1-0.9C142.5,108.5,145,107.5,145.8,105.7L145.8,105.7z"/>
	<path class="st2" d="M145.8,105.7c-0.8,1.7-3.3,2.8-1.9,5.3c-4.6,0.2-9.2-0.6-13.7,0.5l-3.7-0.1c-0.4-1.4-1.5-1-2.4-1
		c-3.5-0.1-6.9-0.1-10.4,0c-2.1,0.1-4.3-0.6-6.4,0.5l-25.9-0.8c-0.4-1.4-1.6-0.9-2.5-1c-2.7-0.1-5.4-0.1-8.1,0
		c-3.2,0.2-6.6-0.6-9.8,0.4l-2.4-0.1c-0.7-1.8-2.3-1-3.4-0.9c-5,0.2-10.1-0.7-15.1,0.4l-1.9-0.1c-0.2-1.1-1.1-1-1.9-1h-9.9
		c-0.8,0-1.6-0.1-2,0.9c-5.8,2.5-7.5,5.1-7.4,11.4c0.1,2.3,0.1,4.6,0.1,6.8c-0.2,0.4-0.5,0.7-0.5,1.1v16.8c-0.1,0.6,0.3,1.2,0.9,1.3
		l0.2,4.9c-1.2,5.6-0.2,11.3-0.5,16.9c0,1.3-0.5,2.8,0.5,4c0.3,0.6,0.9,1.1,0.6,1.9c-0.2,0.4-0.5,0.7-0.5,1.1c0,5.9,0,11.8-0.1,17.7
		c0,0.7,0,1.4,1,1.6c0.3,1.6,0.4,3.2,0.2,4.9c-0.2,0.2-0.5,0.5-0.4,0.7c0.1,8.8-0.6,17.5,0.3,26.3c0.2,3.6,0.2,7.2-0.1,10.8
		c-0.2-2.6-0.4-5.2-2.3-7.8c-0.9,3.3,0,6.5-1,9.5v-15.1c0-1,0.6-2.3-1-2.8c0-1-0.1-2-0.1-3c0.9-0.9,0.5-2.1,0.5-3.1
		c0-8.4,0.1-16.9-0.5-25.3c-0.3-5.1,0-10.3-0.1-15.5c0-1,0.6-2.3-0.9-2.8l-0.2-4.9c0.9-1.1,0.5-2.5,0.5-3.7v-19h-0.4l-0.6,1.6
		c-0.1-3.2-0.3-6.4-0.4-9.6l-0.1-2.6c0.1-0.8-0.4-1.6,0.1-2.4c0.2,0.1,0.6,1.1,0.6,0.4c0.2-4.1,0.1-8.3,0.1-12.4
		c0-0.6-0.4-0.8-0.9-1c-0.8-8.3,5.1-14.9,13.3-15.1h5.8c1.1,0.3,2.2,0.3,3.3,0c2.8,1.3,5.7,0.4,8.5,0.5l28.9,0.6l5.4,0.1
		c7.6,0.6,15.2,0.5,22.9,0.7c1.5,0,3,0.2,4.4,0.4c0.8,1.1,2,0.8,3,0.8h16.6c0.2,0,0.4,0,0.6,0.1c3.8,1.1,7.7,0.4,11.5,0.4
		c2.3,0,4.8,0.6,7-0.4L145.8,105.7L145.8,105.7z"/>
	<path class="st8" d="M166.1,111c-2.5-1.1-4.8-2.5-7-4.2c-0.9-0.7-1.6-1.3-2.9-0.8c-3.2,1.5-4.6,0.8-5.8-3c0.5,0.1,1,0.1,1.5,0.1
		c0.8,0,1.9,0.3,2.1-1c0.3-0.8,0.1-1.6-0.5-2.2c-1-0.8-1.5,0.4-2.2,0.7c-0.4-3.3-0.2-6.6,0.5-9.8c0.4-1.5-0.1-3.2-1.3-4.2
		c-5.4-5.4-5.4-5.4-2-12.2c0.6-1.2,1.2-2.3,1.8-3.4l0.2,0.2c0.6,2.9,3.9,4.7,5.9,3.1c0.9-0.7,2-1,3.1-0.8c1.5,0.1,3-0.2,1.8-2.3
		l-0.2-0.2c0.7-1.3,1.7-2.3,3-3c-0.2,0.5-0.4,1.1-0.6,1.7c0.9,0.7,1.9,0,2.4-0.4c1.8-1.5,3.3-1.6,5.2-0.2c1,0.7,2.1,0.3,2.8-0.9
		c1-1.8,2.3-1,3.1,0c0.9,1.1,0.9,2.7,0.1,3.9c-0.5,0.6-1.3,0.1-1.7-0.6s-1.2-1.1-2-0.8c-1.1,0.3-1.1,1.2-1.2,2.2
		c0,0.9-0.2,1.8-0.4,2.6c-0.4,1.6,0.6,1.6,1.7,1.7c-3.9,4-6.8,8.9-8.4,14.3c-1.9,4.4-2.2,8.9,0,13.3v0.3c0,0.8-0.3,1.6,0.6,2.1
		c-0.1,0.5,0.1,1,0.5,1.3v2.5H166.1z"/>
	<path class="st13" d="M281.8,44.9c0.3,0.1,0.6,0.3,1,0.5c-1,2.6,0.9,4,2.2,5.6c-0.9,1.2-1.9,2.3-3,3.3c-0.9,0.6-1.4,1.7-1.2,2.8
		c0.7,2.6-1,3.3-2.9,4.3c-2.1,1.1-3,0-4.2-1.3c-1.4-1.6-7-1.7-8.3,0.1c-1.5,2.1-3,1.8-5.1,1s-2.3-2-2.1-3.9c0.3-2.6-3.9-5.9-6.8-5.7
		c-1.2-0.2-2.8,0.3-3-1.7c-0.2-1.7-2.4-3.6,0.4-5.2c0.6-0.5,1.2-1,1.8-1.6c1.6-1.8,0.5-4,0.7-5.9c0-0.6-0.8-1.5,0.4-1.6
		s0.9,0.8,0.9,1.5c0.1,0.9-0.1,1.9,1,2.2s1.1-1.2,1.8-1.5c0.7,1.7-0.8,3.8,1,5.3c1,1.9,1.3,4.2,3.4,5.4c0.1,0.6,0.6,1.1,1.2,1.2
		c0.4,1,1.4,1.5,2.4,1.2c0.9,2.2,3.1,1.8,4.8,2.2c3.5,0.8,8.3-1.4,9.6-4c0.4,0,0.6-0.2,0.6-0.6c0.4,0,0.6-0.2,0.6-0.6
		c1.2,0,1.4-0.8,1.2-1.8c0.6,0.2,0.9-0.2,1.2-0.6l0.6-0.6C282,44.9,281.8,44.9,281.8,44.9z"/>
	<path class="st6" d="M124.2,105.6h-16.6c-1.1,0-2.2,0.3-3-0.8l19,0.1L124.2,105.6z M143.3,105.7c-2.3,1.1-4.7,0.5-7,0.4
		c-3.8-0.1-7.7,0.7-11.5-0.4C130.9,105.4,137.1,105.4,143.3,105.7z"/>
	<path class="st8" d="M150.3,71.3c0.5-1.6,1.7-0.9,2.7-0.8c2.7,0.2,5.4,1,8.1,0.8l0.2,0.2c-1,1-2.2,0.6-3.3,0.5
		c-2.5-0.1-5-0.3-7.4-0.5L150.3,71.3z"/>
	<path class="st9" d="M151.3,100.8c0.7-0.3,1.2-1.5,2.2-0.7c0.6,0.6,0.8,1.4,0.5,2.2c-0.2,1.2-1.3,0.9-2.1,1c-0.5,0-1,0-1.5-0.1
		C151,102.5,151.3,101.7,151.3,100.8L151.3,100.8z"/>
	<path class="st8" d="M169.6,64c-0.4,2-1.8,2.6-3.6,2.5C167,65.3,168,64.2,169.6,64z"/>
	<path class="st12" d="M96.6,54.6c-1.3,0-1.3-0.9-1.3-1.8C96,53.1,96.5,53.8,96.6,54.6z"/>
	<path class="st8" d="M165.3,67c0.2,1-0.2,1.4-1.2,1.2C164.3,67.6,164.7,67.2,165.3,67z M225.1,71.3c-0.6-0.1-0.7-0.6-0.8-1.1
		C224.8,70.4,225.1,70.8,225.1,71.3z M221.3,67.2c-0.6,0-1-0.3-1.1-0.9L221.3,67.2z M224.3,70.2l-0.6-0.6L224.3,70.2z M223.7,69.6
		l-0.6-0.6L223.7,69.6z M222.5,68.4l-0.6-0.6L222.5,68.4z M221.9,67.8l-0.6-0.6L221.9,67.8z M166,66.5l-0.6,0.6L166,66.5z M225.5,72
		l-0.6-0.7C225.3,71.3,225.6,71.6,225.5,72z M220.8,129.7c-1.4,0.1-2.8-0.6-3.6-1.7c-1.8-2.1-5-1.7-7.5-2.5
		c-1.2-0.4-2.6-0.1-2.7-1.9c0.7-0.6,1.4-1.1,2.1-1.6c6.4-4.3,10.7-11,12-18.5c0.6-2.5,0.5-5.2-0.4-7.6c-0.7,6.1-1.3,12.1-5,17.1
		c-1.3-0.1-1.8-0.9-1.4-2c0.8-1.9-0.6-2.5-1.8-2.6c-1.4-0.2-1.7,1-2,2.3c-0.5,2.7,0.4,5.2,0.7,7.7l-0.6,0.5c-0.5,0-1,0.1-1.2,0.7
		c-0.2,0.8-0.9,1.2-1.7,1.1c-0.8-0.1-1.4-0.4-0.9-1.4c2.2-4.7-0.4-9.1-0.5-13.7c-0.1-0.8-0.6-1.5-1.4-1.8c-1-0.3-0.8-1.3-0.9-2
		l0.2-2.2c1.5-0.3,0.9-1.5,1-2.4c0.8-0.7,1.2-1.9,2.5-1.9c0.8,0,1.5-0.7,1.4-1.5v-0.1c0-0.9-0.1-2-1.3-2.5c-0.5-0.2-1.3-0.4-1.6-0.8
		c-0.9-1.3-2.6-2.5-2-4s2.3-0.2,3.5-0.1c1.7,0.2,3.4,0.2,5.1,0.1c1.9-0.4,3.8,0.4,5,1.9c2.9,4,7.1,3.3,10.9,2.6
		c3.2-0.5,5.7-0.2,7.8,2.2l-1.4,1.1c-0.5-0.7-1.4-0.9-1.8-0.5c-1.2,1.5-2.8,2.3-4.2,3.5c-1.4,1.4-1.8,3.5-0.8,5.2
		c0.4,0.8,1.1,1.6,2.2,0.9c1.5-1,4.4-0.3,4.1-3.6c-0.2-1.6-0.6-3.4,0.4-4.9c0.8,4.4-0.4,8.8-0.5,13.2c2,2.4,3.9,4.8,6.7,6.5
		l-0.1,0.2c-0.2,0.9-0.5,1.9-0.7,2.8c-0.6,0.4-1,1.2-0.9,1.9c-1.3,1.3-1.9,3-2.6,4.6s-1.5,2.8-3.8,2.2c-4.2-1.1-8.4-1.4-11.3,2.8
		c0,0.1-0.2,0.1-0.3,0.1L220.8,129.7L220.8,129.7z"/>
	<path class="st2" d="M241.1,114.5c-2.7-1.6-4.6-4.1-6.7-6.5l13.9,0.4l0.2,0.1l0.3-0.1h3.1l4.6,0.1l0.8,0.2l-1.2,4.5
		c-0.8,1.3-2.1,0.7-3.3,0.8C249,114.3,245,113.4,241.1,114.5L241.1,114.5z"/>
	<path class="st13" d="M235,94.8c-1,1.6-0.6,3.3-0.4,4.9c0.3,3.3-2.6,2.6-4.1,3.6c-1,0.7-1.8-0.1-2.2-0.9c-0.9-1.7-0.6-3.9,0.8-5.2
		c1.4-1.1,3-1.9,4.2-3.5c0.4-0.5,1.3-0.2,1.8,0.5L235,94.8L235,94.8z"/>
	<path class="st0" d="M230.3,76.1c-0.2-1.9,0.8-2.8,2.5-2.8h3c2.3-0.2,3.2,0.7,2.3,2.9L230.3,76.1z"/>
	<path class="st5" d="M256.2,113.2l1.2-4.5h1.5c0.2,1.4,0,2.7-0.5,4C258,114.1,257.2,114.1,256.2,113.2z"/>
	<path class="st8" d="M230.3,76.1l7.8,0.1l0.7,0.6c-3.2-0.1-6.5,0.7-9.6-0.4C229.2,76.4,230.3,76.1,230.3,76.1z"/>
	<path class="st5" d="M256.6,108.5l-4.6-0.1C253.4,107.8,255.1,107.9,256.6,108.5z"/>
	<path class="st3" d="M320.3,166.8l0.1-4.8C321.2,163.5,321.1,165.3,320.3,166.8z"/>
	<path class="st8" d="M240.6,81.6c-0.9-0.4-0.7-1.1-0.7-1.8C240.6,80.2,240.5,80.9,240.6,81.6z M240,79.8c-0.7-0.3-0.7-0.9-0.6-1.5
		C239.9,78.6,240.1,79.2,240,79.8z M239.4,78.1c-0.5-0.2-0.8-0.8-0.7-1.3C239.5,77,239.4,77.6,239.4,78.1z"/>
	<path class="st5" d="M248.8,108.4l-0.3,0.1l-0.2-0.1C248.5,108.1,248.7,108.1,248.8,108.4z"/>
	<path class="st6" d="M260.4,305.9c0.1,0.2,0.2,0.5,0.3,0.7H5c-0.7,0-1.4-0.1-2.1-0.2c1.2-0.8,2.5-0.4,3.8-0.4h249.8
		C257.8,306,259.1,305.9,260.4,305.9z"/>
	<path class="st12" d="M71.8,103.7c-9.6-0.2-19.3-0.3-28.9-0.6c-2.8-0.1-5.7,0.8-8.5-0.5c-0.5-1.4,0-2.9-0.9-4.2l0.2-3
		c1.9,0,2.4,0.9,1.8,2.7c-0.4,1.2-0.9,2.8,0.6,3.7c1.3,0.8,6.1,0,6.8-1c1-1.4,0.6-2.2-1.1-2.4c-0.8-0.1-1.7,0-1.7-1.2
		c-0.1-0.9,0.4-1.8,1.3-2.1c1.8-0.6,3-1.5,2.9-3.6c0-0.3,0.2-0.8,0.3-0.8c4.2-0.8,4.8-7.5,10.3-6.2c1,0.2,2-0.8,2.3-2
		c0.2-1.2,1.1-2,2.3-2c1.3,0,2.3,0.9,2.6,2.1c0.6,2.6,1.8,1.7,3.2,0.7L71.8,103.7L71.8,103.7z"/>
	<path class="st11" d="M71.8,103.7l-6.5-20.2l-0.1-0.6l-0.5-0.7C63.8,76,61.5,70.1,60.3,64c-1-4.3-1.7-8.7-2.3-13.1l5.9,17
		c1,5.6,3.5,10.7,5.4,16c2.5,6.7,5.2,13.3,7.8,19.9L71.8,103.7z"/>
	<path class="st12" d="M33.5,88.8C32.3,83.3,33,77.7,33,72.2c0-1.8-0.4-3.8,0.5-5.6c0.2,0.4,0.6,0.9,0.6,1.3v19.6
		C34.1,88,33.7,88.4,33.5,88.8L33.5,88.8z M38.2,91.2c-0.1,0.5-0.4,0.9-1,0.9s-0.7-0.6-0.7-1.1s0.3-0.9,0.9-0.9S38.3,90.6,38.2,91.2
		z M64.8,82.2l0.5,0.7L64.8,82.2z"/>
	<path class="st14" d="M33.5,98.4c0.9,1.3,0.4,2.8,0.9,4.2c-1.1,0.3-2.3,0.3-3.3,0c-2-5.4-5.3-10.2-6.8-15.9
		c3.3,4.3,5.3,9.5,8.7,13.8C33.8,99.8,33.4,99.1,33.5,98.4z"/>
	<path class="st6" d="M12.2,117.7c0.5,0.1,0.9,0.4,0.9,1c0,4.1,0.1,8.3-0.1,12.4c0,0.7-0.4-0.3-0.6-0.4l-0.2-0.9
		C12.2,129.8,12.2,117.7,12.2,117.7z"/>
	<path class="st14" d="M22.5,84.2c0.3-0.1,0.6-0.4,0.7-0.3c0.3,0.2,0.5,0.5,0.6,0.8s0.1,0.9-0.5,0.6C23.1,85.2,22.9,84.8,22.5,84.2z
		"/>
	<path class="st5" d="M240.4,117.5c0.2-0.9,0.5-1.9,0.7-2.8c20.1,0.5,40.3,0.9,60.4,1.6c7.3,0.2,12.1,5.6,12,13
		c-0.4,30.4-0.9,60.9-1.3,91.3c0,2.2-0.5,3-2.9,2.5c-4.7-1.2-9.5-2.1-14.3-3.2c1-3.6,2.6-7,2.9-10.9c0.2-3.5,1.6-7-0.1-10.4l0.1-0.7
		c0.3-0.7,0.2-1.6-0.3-2.2c-0.1-1.5-0.3-3-0.7-4.4c-1.9-6.1-5.3-11.6-10-16c-5.9-5.9-12.3-11.2-20-14.7c-0.3-0.8-1-0.9-1.7-0.9
		c-2.8-0.1-5.6-0.1-8.3,0.2c-2.2,0.3-2.6-0.4-2.6-2.3c0.1-2.2-0.3-4.3-1.2-6.3l-0.2-2.9c-0.1-2.5,2.1-4.5,1.4-7
		c1.5-1.6,1.8-3.2,0.1-4.9c-0.6-0.4-0.7-1.3-0.3-1.9c1.6-2.2,0.6-3.8-1-5.4c0.1-0.6,0.1-1.1,0.3-1.7c0.2-0.8,0.9-1.8-0.1-2.3
		c-1.2-0.6-1.3,0.7-1.8,1.4s-0.8,1.5-1.2,2.3c-2,1.2-3.7,0-5.4-0.7c0.1-0.1,0-0.2,0-0.3c0-0.2,0-0.4-0.1-0.6
		c-0.4-2.5-2.2-3.1-4.3-2.9c-2.8,0.3-4,2.3-4.5,4.8c-0.5,2,0.2,3.5,2.4,4l0.6,0.3c-1,3.4-1.2,7-1.7,10.5c-0.7,0.6-1.1,1.4-1.1,2.3
		c-1.7,6.3-0.9,7.5,5.3,7.8c0.2,0,0.4,0.1,0.6,0.1l-0.1,8.4c-1,0.6-2.1,0.4-3.1,0.8c-1.8,0.6-4.1,0.3-4.7,2.9
		c-0.8,0.8-1.2,1.9-0.9,3c-0.4,2.6-0.4,5.2,0,7.8c-0.3,2.1,0.1,4.2,1,6c-0.2,0.8-0.1,1.7,0.3,2.4c-0.1,1.1,0.3,2.1,0.9,3v1.2
		c-0.9,1.2-1.5,2.7-1.7,4.2l-0.1,0.1c-1.2,1.2-1.6,2.8-2.4,4.2c-0.5,0.1-0.6,0.6-0.6,1l-0.2,0.6l-0.4,0.5l-0.3,0.5
		c-1.6,1.3-3,2.9-4,4.6c-9.9-2-19.9-4.1-29.8-6c-2.3-0.4-3-1.3-3-3.6c0-7.4-2.6-14.7-7.5-20.3c-5.3-6.4-12.3-9.6-20.2-11.3v-0.6
		c-0.6-1.2-0.2-3.6-2.2-3.2c-1.7,0.4,0.4,2.2-0.1,3.4c-5.2-0.1-10.3,0.4-15.3,1.6c-1.8-0.3-3.2-1.6-3.8-3.3c-1.5-3.6-3.5-6.9-6-9.9
		c-1.3-1.3-1.6-3.2-0.9-4.9c1-3.3,2.6-6.5,2.6-10c1.1,0,2-0.1,1.7-1.6c-0.2-0.7-0.6-1.4-1.4-1.3c-1.6,0.2-0.7,1.5-1,2.3
		c-3.6-1.5-6.5-4.2-9.6-6.5c-1.9-1.4-3.1-1.2-4.7,0s-3.7,2.4-5.4,3.8c-1.6,1.5-3.9,1.8-5.8,0.8c-2.6-1.2-5.5-2-8.4-2.2
		c-4-0.2-6.3-2-7.9-5.8c-2.7-6.1-3-6-9.5-5.1c-0.4,0.1-0.8,0-1.2,0.1c-7.8,1.2-7.8,1.2-9.4,8.9c-0.2,1.1-0.4,2.1-0.6,3.2
		c0,1-0.6,1.9-1.6,2.2c-4.4,1.7-8.4,4.3-11.8,7.5c-0.7,0.7-1.6,0.8-2.9,0.6c-2.2-0.4-4.1-2.1-6.5-1.5l-1.7-0.9
		c-0.7-0.7-1.8-0.6-2.5,0.1c-1.1,0.1-1.6,0.9-1.9,1.8l-0.5,0.6l-0.6,0.7l-0.8,1.1c-1.2,1.5-2.3,3-3.5,4.4c-1.8,2-2.1,3.8,0,5.9
		c4.3,4.4,5.9,9.3,2.8,15.1c-0.1,0.4-0.2,0.8-0.2,1.1c-0.2,0.4-0.4,0.9-0.5,1.4c0.5,5.8-3.2,8.4-7.9,10.2l-0.3,0.1
		c-4.5,2.3-4.5,2.3-2.9,7.5c0,3.2,0.8,6.3,1.4,9.5c0.7,1.2,1.8,1.2,2.9,1.1l8.8,1.4l1.2,1l0.7,1.3c-0.1,0.4,0.1,0.9,0.5,1.1l0.7,1.2
		c0,0.5,0.2,1,0.6,1.2l0.6,0.8c-0.1,0.1-0.1,0.2,0,0.3l0.6,0.7c0,0.5,0.2,1,0.6,1.3c0,0.2,0,0.3,0.1,0.5c0.5,1,1.1,1.9,1.9,2.7
		c2.3,2,2.2,4.1,1.1,6.7c-0.9,2-1.2,4.2-2,6.3c-0.6,1.1-0.3,2.5,0.9,3.2l0.1,0.1c3.1,2.1,6.2,4.4,9.2,6.7c1.6,1.3,2.8,1,4.3-0.1
		c2.1-1.5,4.3-2.9,6.3-4.5c1.1-0.9,2.6-1.1,3.8-0.5c4.1,1.7,8.5,2.7,13,3c1.1,0.1,2.1,0.8,2.4,1.8c1.4,2.7,2.9,5.3,4.2,7.9
		c0.7,1.4,1.6,1.7,3.1,1.4c3.4-0.7,6.9-1.2,10.3-1.6c2.3-0.3,3.3-1.3,3.7-3.7c0.6-3.4,0.2-7,2.4-10l1.1-0.2l1.8-1l1.2-0.6
		c0.2,0,0.4-0.1,0.6-0.2l1.3-0.9l1.2-0.8c0.8-0.1,1.5-0.5,1.8-1.2l0.6-0.6c0.5,0,0.9-0.2,1.2-0.6l0.7-0.6l0.5-0.4l0.6-0.8h0.3
		l0.3-0.1l1.8-0.1c1.4,0.4,2.7,1.2,4.2,1.2c4.4,2.3,8.2,5.5,13.2,6.9c16.3,4.4,30.5-1.2,38.7-15.8c0.9-1.6,1.8-2.1,3.5-1.5
		c4.2,1.4,8.4,2.6,12.6,3.9c3.2,3.4,7.3,3.9,11.6,3.5c2.5,0.7,5,1.3,7.4,2.1c9.5,3,19.2,5.4,28.7,8.8c1.4,9.2,2.8,18.4,4.3,27.6
		l1.2,8.4l0.1,1.2c0.3,1.6,0.1,3.4,0.9,4.9c0,0.4,0,0.7,0.1,1.1c0.1,0.8,0.1,1.6,0.2,2.4s0.3,1.6,0.4,2.4l0.1,4H28.4
		c-5.5,0-7.1-1.6-7.2-7.1l-2-79.7c0.2-1.6,0.1-3.3-0.2-4.9c-0.1-6.8-0.3-13.6-0.4-20.3c0.3-0.8-0.3-1.3-0.6-1.9
		c0.3-7,0.3-13.9,0-20.9c-0.1-1.6-0.1-3.2-0.2-4.9c-0.1-6.4-0.3-12.8-0.4-19.1c0-2.3,0-4.6-0.1-6.8c-0.1-6.4,1.5-8.9,7.4-11.4
		c4.6-0.7,9.1,0.4,13.7,0.1l1.9,0.1l18.5,0.5l2.4,0.1l20.3,0.5l25.9,0.8l19.1,0.5l3.7,0.1l12.6,0.4c2.2,0.3,2.4,2.1,2.9,3.6
		c1.5,5,1.5,5.2,6.4,4.9c3.7-0.2,6.6,0.4,8.2,4.1c0.2,0.5,0.6,0.8,1,1.1c5,3.2,5.5,7.8,4.1,13c-0.5,1.6,0.1,2.4,1.5,3
		c1.6,0.7,3.2,1.6,4.8,2.4c4.8,2.4,5,2.6,8.5-1.4c2.4-2.7,4.9-3.6,8.3-2.5c0.9,0.3,1.8,0.4,2.7,0.3c4.8-0.9,8,1.1,10.1,5.3
		c1.1,2.2,2.8,2.8,5.2,1.6c2.3-1,4.6-1.9,7-2.5c1.4-0.4,2.1-1.2,1.8-2.6c-1-5.4,0.8-9.6,5.5-12.5l0.8-0.6c0.1,0,0.2,0,0.3-0.1
		c3-4.2,7.1-3.9,11.3-2.8c2.3,0.6,3-0.5,3.8-2.2s1.2-3.3,2.6-4.6h12.3c0.4,0,1-0.1,1.2,0.1c1.5,2.1,3.1,1.8,4.8,0.4h0.3l39.2,0.8
		h0.6c6.7,0.5,11,3.6,10.5,10.9c-0.3,5.1,0,10.2-0.1,15.3c-0.1,9.6-0.4,19.2-0.5,28.7c0,0.9-0.6,2.4,0.9,2.4c1.2,0,0.8-1.4,0.8-2.2
		c0.1-6.7,0.1-13.4,0.5-20c0.4-8.1-0.1-16.2,0.2-24.3c0.4-9.2-5.4-12.2-12.3-12.5c-12.3-0.5-24.5-0.6-36.8-0.7c-2,0-3.8-1.2-5.7-1
		C250.3,118,245.3,117.6,240.4,117.5L240.4,117.5z M156.6,151.3c-0.6-0.1-1,0-1.1,0.4c-0.2,0.6,0,1.2,0.6,1.5c2.9,2.2,6.1,4,9.4,5.4
		c0.6,0.2,1.2,0.2,1.5-0.4c0.3-0.4,0.2-1-0.3-1.2c0,0-0.1,0-0.1-0.1c-2.8-1-5.3-2.5-7.5-4.5C158.4,151.9,157.5,151.6,156.6,151.3
		L156.6,151.3z M307.9,207.8h1c0.2-4.3,0.1-8.7-0.1-13h-0.9V207.8z M97.6,114c0.9-0.2,2.3,0.4,2.4-1.1c0-1.8-1.5-1.1-2.5-1.2
		s-2.4-0.3-2.4,1.1C95.1,114.3,96.7,113.8,97.6,114z M96.1,256.2c0.6-0.3,2.2,0.5,2-1.2c-0.2-1.5-1.6-1.1-2.6-1.1s-2.3-0.1-2.2,1.2
		C93.4,256.4,95,256,96.1,256.2z M25.7,180.8c-0.2-0.8,0.5-2.3-0.9-2.4s-1.4,1.4-1.3,2.5s-0.3,2.4,1,2.4
		C26,183.3,25.6,181.8,25.7,180.8z M228.7,154.6c1.1-1,3-1.2,3.2-3.1c0-0.4-0.3-0.8-0.7-0.8c-0.1,0-0.2,0-0.4,0.1
		c-1.4,0.5-2.8,1.2-3.3,2.7C227.3,154.1,227.9,154.5,228.7,154.6L228.7,154.6z M32.7,215.1c-0.9-1-0.5-3-2.1-3.5
		c-0.8-0.3-1.3,0.6-1.1,1.3c0.4,1.3,0.7,3,2.3,3.5C32.4,216.5,32.7,215.8,32.7,215.1z M175.1,160.5c-0.7-1.4-2.3-1.4-3.6-1.8
		c-0.6-0.2-1.2,0.5-1,1.1c0.5,1.8,2.3,1.5,3.6,2C174.7,162.1,175,161.4,175.1,160.5z M181.4,163.8c0.8-0.1,2,0.2,1.9-0.9
		c-0.1-2.1-2.2-1.1-3.3-1.7c-0.8-0.4-1.6-0.1-1.6,0.7C178.6,163.7,180.4,163.1,181.4,163.8L181.4,163.8z M119.1,252.3
		c1.2-0.6,3-0.4,3.6-2.1c0.2-0.8-0.6-1.3-1.4-1c-1.3,0.5-3.1,0.4-3.5,2.2C117.7,252.1,118.4,252.4,119.1,252.3L119.1,252.3z
		 M27.9,161.5c-1.6,0.4-1.4,2-1.9,3.1c-0.4,0.8-0.2,1.9,0.7,1.9c1.8,0,1.4-1.9,1.9-3c0.4-0.7,0.1-1.5-0.5-1.9
		C28,161.6,28,161.6,27.9,161.5z M39.3,139.2c-1.3,0.8-2.2,2-2.5,3.5c-0.1,0.5,0.4,1.1,0.8,1c1.6-0.5,2.2-2.1,2.9-3.4
		C40.9,139.7,40.2,139.3,39.3,139.2z M24,172.8c0,1,0,2.3,1.2,2c1.8-0.4,0.8-2.4,1.4-3.5c0.2-0.4,0.1-1-0.4-1.2
		c-0.1-0.1-0.3-0.1-0.4-0.1C24.2,170.2,24.4,171.8,24,172.8z M25.7,189.6c-0.2-1,0.4-2.6-1.3-2.7c-1.1,0-1,1.2-1,2.1
		c0.1,1.1-0.1,2.7,1.5,2.7C26.1,191.8,25.6,190.4,25.7,189.6z M79.9,115.7c0.6-1.2,2.8,0.4,3.3-1.5c0.1-0.5-0.3-1.1-0.8-1.2h-0.5
		c-1.2,0.6-3.1-0.3-3.6,1.5C78,115.4,78.9,115.7,79.9,115.7z M113.8,114.1c-0.9,0-1.8,0.1-1.5,1c0.4,1.8,2.3,1.2,3.4,1.7
		c0.4,0.2,0.9,0,1.1-0.4c0.1-0.2,0.1-0.3,0.1-0.5C116.6,114,114.8,114.5,113.8,114.1z M52.6,128.5c0-0.9-0.4-1.2-0.9-1.2
		c-1.8,0.2-2.8,1.4-3.5,2.9c-0.2,0.5,0.4,1.1,0.8,1C50.6,130.7,51.5,129.3,52.6,128.5z M224.7,156.2c0-0.8-0.5-1.4-1.1-1.1
		c-1.3,0.5-3,0.6-3.4,2.4c-0.1,0.6,0.4,0.9,0.9,0.9C222.6,158.3,223.9,157.5,224.7,156.2L224.7,156.2z M205.7,163.6
		c0.6-0.9,2.6,0.4,2.9-1.4c0.2-0.5-0.1-1-0.6-1.2c-0.2-0.1-0.4-0.1-0.6,0c-1.2,0.4-3-0.1-3.3,1.6
		C203.9,163.3,204.7,163.6,205.7,163.6L205.7,163.6z M46.1,134c0-0.7-0.2-1.3-0.7-1.2c-1.6,0.2-2.4,1.6-3.2,2.8
		c-0.2,0.4-0.1,0.9,0.3,1.1c0.2,0.1,0.4,0.1,0.6,0.1C44.7,136.6,45.1,134.9,46.1,134L46.1,134z M146.3,142.4
		c-0.6-1.2-1.6-2.2-2.9-2.8c-0.6-0.2-0.8,0.6-0.7,1.1c0.5,1.4,1.1,2.8,2.6,3.2C146.1,144.1,146.3,143.3,146.3,142.4L146.3,142.4z
		 M27.4,203.6c-0.8,0.3-1.2,1-0.9,1.7c0.5,1.1,0.5,2.9,1.8,3.2c1.1,0.2,1.2-1.2,0.9-2C28.7,205.4,29,203.8,27.4,203.6z M26.9,198.2
		c-0.2-1.1,0-2.6-1.4-2.8c-0.9-0.1-1.1,1-0.9,1.8c0.2,1.1,0.1,2.7,1.4,2.9S26.8,198.9,26.9,198.2z M33.5,150.6
		c1.4-0.6,1.8-2.1,2.2-3.5c0.2-0.6-0.5-1.3-1.1-1c-1.2,0.7-2,1.9-2.2,3.3C32.3,150,32.5,150.5,33.5,150.6z M89.1,114
		c0.5-0.6,2.4,0.9,2.5-1.1c0-1.2-1.1-1.1-2-0.8s-2.8-0.4-2.8,1.4C86.6,114.7,87.9,114.4,89.1,114L89.1,114z M137.3,242.2
		c-0.1-0.7-0.5-1.2-1-0.9c-1.3,0.7-3,1.1-3.4,2.8c-0.1,0.6,0.7,0.7,1.1,0.6C135.4,244.5,136.7,243.6,137.3,242.2L137.3,242.2z
		 M87.9,255.8c1,0.3,1.9,0.1,1.9-0.8c0-1.8-1.8-1-2.7-1.5c-0.5-0.3-1.3-0.2-1.6,0.4c-0.1,0.2-0.2,0.4-0.2,0.6
		C85.3,256.3,87.2,255.1,87.9,255.8z M71.7,118c0.8-0.8,2.9,0.1,3.1-1.9c0.1-0.9-0.9-1-1.6-0.8c-1.1,0.4-2.8,0.2-3,1.9
		C70.1,118,70.8,118.2,71.7,118z M197.8,164.4c0.9-0.2,2.2,0.4,2.4-1.1c0.2-1.1-0.7-1.5-1.5-1.1c-1,0.4-2.8-0.2-3,1.3
		C195.6,164.8,197,164.3,197.8,164.4L197.8,164.4z M128.4,246c-0.8,0.7-2.6,0.5-2.9,2.1c-0.1,0.7,0.7,1,1.3,0.8
		c1.2-0.4,2.8-0.6,3.2-2.1C130.2,246.1,129.3,246,128.4,246z M78.8,252c-0.8,0.1-1.9-0.2-1.9,0.8c0,1.4,1.4,1.5,2.4,1.5
		c0.8,0,2.1,0.5,2-0.9S79.8,252.2,78.8,252z M103.8,255.6c1-0.2,2.4,0.3,2.6-1.3c0.1-0.5-0.3-1-0.9-1.1c-0.2,0-0.4,0-0.6,0.1
		c-1.1,0.5-3-0.1-3.3,1.4C101.6,256,103.1,255.4,103.8,255.6z M64.2,121.2c0.9-0.5,2.4-0.4,2.8-2c0.2-0.8-0.4-1.1-1.1-0.9
		c-1.3,0.4-2.9,0.5-3.3,2.2C62.4,121.3,63.3,121.2,64.2,121.2z M56.4,125.8c0.9-0.8,2.6-0.9,2.8-2.6c0.1-0.8-0.7-1-1.3-0.7
		c-1.1,0.6-2.6,0.7-2.8,2.3C55.1,125.5,55.5,125.9,56.4,125.8z M151.6,149.8c0.8-0.3,1.4-0.8,1-1.3c-0.6-1.2-1.7-2.2-3-2.6
		c-0.4-0.1-0.8,0.2-0.8,0.5v0.4C149.4,148.2,150.4,149.2,151.6,149.8L151.6,149.8z M31.7,155c0-0.9-0.3-1.6-1-1.3
		c-1.4,0.6-1.7,2.1-1.9,3.4c-0.1,0.6,0.2,1.4,0.9,1.1C31.2,157.7,31.2,156.1,31.7,155z M216.9,159.7c0.1-0.7-0.2-1.3-0.7-1.2
		c-1.4,0.4-3.1,0.3-3.8,1.8c-0.3,0.7,0.5,1.1,1.1,1C214.8,161.1,216.3,161,216.9,159.7z M111.8,254.4c0.6-0.6,2.4,0,2.6-1.5
		c0.1-1.1-1.1-0.9-1.9-0.8c-1.1,0.1-2.4,0.1-2.6,1.5C109.8,254.4,110.8,254.4,111.8,254.4z M106.5,114.6c0.7-0.1,2,0.2,1.9-0.8
		c-0.2-1.7-2.1-1-3.1-1.5c-0.4-0.2-1-0.1-1.3,0.3c-0.1,0.2-0.1,0.4-0.1,0.7C104.1,114.8,105.4,114.5,106.5,114.6L106.5,114.6z
		 M143.7,237.6c0.1-0.9-0.2-1.3-0.8-1.2c-1.4,0.2-2.6,1-3.1,2.3c-0.2,0.4-0.1,0.8,0.3,1c0.2,0.1,0.4,0.1,0.6,0.1
		C142.1,239.6,142.8,238.4,143.7,237.6L143.7,237.6z M189.4,164.4c0.8-0.3,2.3,0.6,2.3-1c0-1.1-1.2-0.9-1.9-0.8
		c-0.9,0-2.3-0.6-2.5,0.8S188.6,164.2,189.4,164.4L189.4,164.4z M121.5,116.5c-0.7,0.1-1.4,0.3-1.3,1c0.1,1.5,1.6,1.3,2.5,1.6
		c0.4,0.2,0.9,0,1.1-0.4c0.1-0.1,0.1-0.3,0.1-0.5C123.7,116.9,122.4,116.9,121.5,116.5L121.5,116.5z M73.6,251.3
		c-0.2-0.9-1.1-1.2-2-1.5c-0.5-0.2-1,0-1.2,0.5c0,0.1-0.1,0.2-0.1,0.4c0,1.2,1.1,1.3,1.9,1.6S73.3,252.1,73.6,251.3z M156.7,146.5
		c-0.7,0.1-1.2,0.4-1.2,1.1c0.1,0.9,0.8,1.7,1.7,1.8c0.4,0.1,0.8-0.2,0.9-0.6v-0.3C158.1,147.6,157.8,146.7,156.7,146.5z"/>
	<path class="st2" d="M16.3,263.8v-14.2h0.3v14.2H16.3z M251.3,234c-9.4-3.4-19.1-5.8-28.7-8.8c-2.5-0.8-5-1.4-7.4-2.1
		c-1.3-0.7-2.4-1.8-3.1-3.1c-0.8-1.5-2-2.8-3.5-3.6c-1.4-0.9-2.9-2.2-4.6-1.2s-0.6,2.9-0.5,4.4c-4.2-1.3-8.4-2.5-12.6-3.9
		c-1.7-0.6-2.6-0.1-3.5,1.5c-8.2,14.6-22.4,20.2-38.7,15.8c-5-1.3-8.8-4.6-13.2-6.9c-0.3-1.3-1.5-1.7-2.4-2.4
		c-2.3-3.5-5.5-6.4-6.4-10.7c0.4-0.8,0-1.8,0.9-2.4c1.2-1.8,2.8-2.8,5.1-2.2c8.5,2.2,17,4.2,25.4,6.5c2.8,0.8,5.1,0.4,7.1-1.5
		c1.2-1.2,2.7-2,4-3.1c1.8-1.5,4.1-2.6,4.4-5.3v0.1l0.6-0.7l-0.1,0.1c0.7-0.6,1.8-1.1,0.6-2.3l-0.4-1.3c0.6-0.5,0.4-0.9-0.3-1.1
		l0.1,0.1c0-0.6-0.1-1.1-0.7-1.3c-1-2.2-2.1-4.5-3.1-6.7c-0.5-1.1-0.9-2.3-2.1-2.9c-4.7-2.2-9.8-3.6-14.9-4c-1-1.2-2.5-1-3.8-1.4
		c-4.3-1.5-9.1-1.4-13-4.3l-0.8-2.4v-1.2l1-3.1c0.6-0.1,1.1-0.3,1.7-0.5c8-5.5,17-7,26.2-5.3c14.7,2.7,26.2,13.5,27,30.1
		c0.1,2.6,0.7,3.9,3.4,4.4c9.9,1.9,19.8,4.1,29.7,6.1l36.5,7.5l25.3,5.2c0,0.6,0.4,1,1,1.1c1,1.2,0.8,2.5,0.6,4
		c-0.4,2.9-1.6,5.6-2.4,8.7c4.5-0.9,6.7-3.9,8.5-7.3c0.2-0.2,0.6-0.4,0.6-0.5c0-4.6,2.8-3.7,5.7-3c8.8,2.1,17.9,3.4,26.6,5.9
		c3.8,1.1,6.6,3.5,9.2,6.3c1.2,1.3,0.8,3,0.5,4.6c-0.2,1.1-0.4,2.1-0.4,3.2l-1.2,5.2l-0.6,1.2l-0.6,1.2l-0.6,0.6l-1.2,0.6
		c-4.2,2.5-8.8,2.5-13.4,1.4c-2.5,0.1-4.7-1.2-7.1-1.4l-26.3-8.1c-3.6-1.1-7.2-2.2-10.8-3.2C266.9,238.5,259.1,236.2,251.3,234
		L251.3,234z M327.3,243.5c0.4-0.1,0.7-0.5,0.7-0.9c0.8-1.8,0.1-3.2-1.2-4.4c-1.2-2.1-3.5-2.8-5.4-4c-0.4-0.8-1.3-1.3-2.2-1.1
		c-2.5,0.7-5,0.1-7.5,0.4c-1.9,0.7-4.1,1.2-4.5,3.8c-0.4,1.6-0.1,3.2,0.9,4.5c3,4,12.3,7.2,17.8,4.1c0.9-0.5,1.7-1.2,1.1-2.4H327.3
		L327.3,243.5z"/>
	<path class="st11" d="M294.3,226.7c-1.8,3.4-4,6.4-8.5,7.3c0.7-3.1,2-5.8,2.4-8.7c0.2-1.4,0.4-2.8-0.6-4l-1-1.1
		c-0.6-0.6-1.3-1.3-1.9-2c0.2-0.7,0.9-1.1,1.6-1c3,0.5,3.3-1.3,3.3-3.7c0-4.7-1-9.2-1.8-13.7c3.2-1,6.6-1.4,10-1.2
		c1.7,3.5,0.3,6.9,0.1,10.4c-0.3,3.8-1.9,7.3-2.9,10.9C294.1,222.1,295.1,224.5,294.3,226.7L294.3,226.7z"/>
	<path class="st2" d="M319.5,132.2v25.6h-0.3v-25.6H319.5z M280,110.3h-19.6V110H280V110.3z"/>
	<path class="st6" d="M13.4,171c1.5,0.6,0.9,1.9,0.9,2.8c0.1,5.2-0.2,10.4,0.1,15.5c0.6,8.4,0.5,16.9,0.5,25.3c0,1,0.4,2.2-0.5,3.1
		L13.4,171L13.4,171z M12.8,145.1l0.6-1.6h0.4v19c0,1.2,0.5,2.6-0.5,3.7c-0.1-6.4-0.2-12.8-0.3-19.3c0-0.1,0.1-0.1,0.1-0.1
		c0-0.1-0.1-0.2-0.2-0.3L12.8,145.1L12.8,145.1z"/>
	<path class="st5" d="M12.3,133l0.1,2.6C11.9,134.8,11.8,133.8,12.3,133z"/>
	<path class="st2" d="M12.9,146.5c0.1,0.1,0.1,0.2,0.2,0.3l-0.1,0.1C12.8,146.9,12.7,146.7,12.9,146.5
		C12.8,146.5,12.8,146.5,12.9,146.5L12.9,146.5z"/>
	<path class="st4" d="M36.9,44.9c-0.1,0.2-0.1,0.4-0.2,0.5s-0.3-0.1-0.5-0.2c0.1-0.2,0.1-0.4,0.2-0.5S36.7,44.8,36.9,44.9z"/>
	<path class="st5" d="M259.7,48.6c-2.1-1.2-2.4-3.6-3.4-5.4c-0.6-6.9,1.4-11.6,5.6-13.4c0.3,0.8-0.4,1-0.8,1.4
		c-4.6,5-5.2,9.7-1.9,15.5C259.5,47.3,259.9,47.9,259.7,48.6L259.7,48.6z M277.7,49.2c-1.4,2.6-6.2,4.7-9.6,4
		c-1.7-0.4-3.8,0-4.8-2.2C268.1,52.9,273.5,52.2,277.7,49.2z M276.2,29.6c-4.3-2-9.3-2-13.6,0C265.8,26,272.1,26.1,276.2,29.6z
		 M266.1,36.4c2.1-1.9,4.5-2.1,6.5-0.3c2.3,2,2.4,4.5,0.4,7.2l-0.3-0.3c0.9-2.1,1.3-4.2-0.7-6c-1.8-1.7-3.6-1.1-5.5-0.3L266.1,36.4
		L266.1,36.4z M281.3,45.6c-0.3,0.4-0.6,0.8-1.2,0.6c0.6-2.7,1.9-5.2,1.4-8.1c1.8,2.2,0.2,4.5,0.3,6.8l0.1,0.1L281.3,45.6
		L281.3,45.6z M265.6,43.3c-2-2.1-2.3-4.2-0.1-6.3l0.3,0.3c-1.1,1.9-0.7,3.8,0.1,5.7L265.6,43.3z M272.3,43.9c-2,1.8-4.1,1.8-6.1,0
		c0.1-0.1,0.2-0.2,0.3-0.4c1.8,0.5,3.8,0.6,5.6,0.1L272.3,43.9z M263.3,51c-1,0.3-2.1-0.2-2.4-1.2C261.9,49.5,262.9,50.1,263.3,51z"
		/>
	<path class="st5" d="M280.1,46.2c0.2,1,0,1.8-1.2,1.8C278.9,47.2,279.3,46.5,280.1,46.2z M260.9,49.8c-0.6-0.2-1.1-0.6-1.2-1.2
		C260.6,48.5,261,48.9,260.9,49.8z M278.3,48.6c0,0.4-0.2,0.6-0.6,0.6L278.3,48.6z M278.9,48c0,0.4-0.2,0.6-0.6,0.6L278.9,48z
		 M272.9,43.3l-0.6,0.6l-0.2-0.3c0.2-0.2,0.4-0.4,0.5-0.6L272.9,43.3L272.9,43.3z M266.2,43.9l-0.6-0.6l0.3-0.3l0.6,0.5
		C266.4,43.7,266.3,43.8,266.2,43.9z M265.5,37l0.6-0.6l0.3,0.3l-0.6,0.6L265.5,37z M285.5,243.9l26.3,8.1l-0.6,27.5
		c-0.1,4.7-1.7,6.4-6.5,6.5h-5.1l-0.1-0.1l-0.1,0.1l-1,0.1c-2.1-5-3.1-10.3-4.7-15.4c-0.3-1-0.8-2-1.1-3.1c0.1-1.1-0.8-1.6-1.2-2.4
		c0.2-0.7,0.1-1.4-0.4-1.9c0-0.2,0-0.3-0.1-0.5c0.1-0.7-0.1-1.5-0.6-2v-0.4c0-0.5,0-1-0.6-1.2c0-0.7,0-1.4-0.6-1.8
		c0-0.5,0-1-0.6-1.2c-0.2-3.1-1.7-5.8-2.6-8.7C285.6,246.3,284.4,245.3,285.5,243.9L285.5,243.9z"/>
	<path class="st2" d="M294.1,305.8l-24.8,0.2l0.5-15.6h18C290,295.5,292.6,300.4,294.1,305.8z"/>
	<path class="st5" d="M271,285.9l-1.2-0.3c0-0.8-0.1-1.6-0.1-2.4v-4.8c0.2-3.2,0.2-6.4-0.1-9.6c0.3-1.2,0.3-2.5,0-3.7
		c0.2-0.4,0.1-0.9-0.3-1.2v-1.6l0.2-0.2c0-0.2-0.1-0.3-0.2-0.5c-0.2-2,0.5-4.1-0.6-6v-0.5c0.4-0.2,0.6-0.5,0-0.7
		c-0.1-1.6,0.5-3.3-0.6-4.8c0.1-0.4,0-1,0.2-1.1c0.7-0.4,0.7,0.4,0.9,0.7c1.4,2,1.6,4.7,3.5,6.5c-0.1,0.5,0.2,1.1,0.6,1.4
		c-0.1,0.1-0.1,0.2,0,0.3l0.6,1.4c0.1,0.9,0.4,1.7,1,2.3c0.2,0.6,0.2,1.4,0.8,1.8l0.5,1.2l0.6,0.9c-0.1,0.1-0.1,0.2,0,0.3
		c0,0.2,0.1,0.4,0.1,0.6c3,6.7,6,13.5,8.9,20.2L271,285.9L271,285.9z"/>
	<path class="st9" d="M273.4,257.3c-0.1-0.1-0.1-0.2,0-0.3c0-0.6,0-1.1-0.6-1.4c3.6-1.3,7.4-0.9,11-0.3c1.6,0.3,3.1,1.2,4.8,0.7
		c-0.1,0.5,0.1,1,0.6,1.2c0,0.7-0.2,1.4,0.6,1.8c-0.1,0.5,0.1,1,0.6,1.2c0.1,0.1,0.1,0.3,0,0.4c0,0.7-0.2,1.5,0.6,2
		c0.1,0.1,0.1,0.3,0.1,0.5c-1.2,0.9-1.1,1.5,0.4,1.9c0.4,0.8,1.3,1.3,1.2,2.4c-1.9,2.3-3.5,1.6-6.7,3.3c-4,2.1-3.7-1.8-5.6-2.4
		c-0.8-0.3-0.9-1.1-0.6-2c0.7-2.1,0-2.7-2.7-2.5h-0.6l-0.5-1.2c0-0.7,0.1-1.5-0.8-1.8c-0.6-0.7-0.9-1.5-1-2.3
		C274.3,258.1,274,257.5,273.4,257.3L273.4,257.3z"/>
	<path class="st6" d="M271,285.9h15.1c0.6,1.5,1.2,2.9,1.8,4.4h-18C270.1,288.9,268.9,287,271,285.9z"/>
	<path class="st10" d="M276.4,264h0.7c0,0.3,0,0.6-0.1,0.9L276.4,264z M277.1,265.8c0-0.2-0.1-0.4-0.1-0.6
		C277.3,265.3,277.6,265.5,277.1,265.8z"/>
	<path class="st9" d="M269.6,268.7c0.3,3.2,0.3,6.4,0.1,9.6c-2.1-1-5.3-0.4-6-3.7c0-0.2-0.6-0.5-0.7-0.4c-3.8,2.3-4.3-1.6-6.1-3.1
		c0-0.4-0.1-0.8-0.1-1.2c0.8-0.1,1.3-0.8,1.2-1.5c0-0.3-0.1-0.5-0.3-0.7c-1.3-1.9-0.9-4.1-1.6-6.1v-6.1c1.7,2.2,3.5,2,5.5,0.6
		c0.6-0.5,1.4-0.8,2.1-1c1.6-0.2,2.8-1.7,2.6-3.4c-0.2-1,0.5-2,1.6-2.2h0.3l-0.1,0.1c0.2,1.6-0.7,3.4,0.6,4.8v1.2
		c0,4.1,0,8.3,0.1,12.5C268.8,268.3,269.3,268.5,269.6,268.7L269.6,268.7z M269.7,283.2c0,0.8,0.1,1.6,0.1,2.4
		C268.1,284.9,268.1,284.1,269.7,283.2z M258.5,282c-0.1-0.8-0.3-1.6-0.4-2.4C259.6,280.1,259.3,281,258.5,282z M257.8,277.2
		c0-0.4,0-0.7-0.1-1.1c0.2-0.2,0.4-0.5,0.6-0.1C258.5,276.5,258.3,277,257.8,277.2z"/>
	<path class="st8" d="M299.5,285.9l0.1-0.1l0.1,0.1H299.5z M171.6,81.9c1.5,0.6,3.1,0,3.9-1.5c1.1-1.9,2.4-2.3,4.2-1.6
		c1.4,0.6,2.4-0.1,2.4-1.3c-0.1-2.4,1.8-2.2,3.1-3c2.1-1.4,3-0.2,4.1,1.2c0.6,0.8,1.6,1.2,2.6,1.1c1.3-0.2,2.6,0.7,2.8,2v0.1
		c0,1.2,1.1,2.2,2.3,2.2c1.1,0,2.1,0.6,2.6,1.6c-4-1.2-7.9-0.1-11.4-1.9c-1.5-0.9-3.4-0.7-4.8,0.3c-1.6,1.2-1.4,3-0.9,4.7
		s-0.1,4.6,3.3,4.2c-2.6,2.3-4,5.6-3.7,9.1c-0.6,0.8-0.8,1.6,0.2,2.3c0,0.7-0.2,1.4,0.6,1.8l-0.1,1.3c-1.4-1.5-4.2-1.2-5-3
		c-1.2-2.8-3.1-3.3-5.6-3c-1.9,0.2-3.7-0.4-5.6-0.6v-4.8c0.9-0.5,0.6-1.3,0.6-2.1c-0.1,0-0.1-0.1,0-0.2c1.6-0.6,1.3-2,1.2-3.3
		C169.1,85.4,170.2,83.5,171.6,81.9L171.6,81.9z"/>
	<path class="st14" d="M167.2,90.7c-0.1,0-0.1,0.1,0,0.2c-0.5,0.5-0.8,1.3-0.6,2.1c-1.1,3.3-1.1,6.9,0,10.3l0.1,1.8
		c3,11.2,11.4,18.9,22.9,20.3c6.5,0.8,12.7-0.2,17.9-4.6c0.8,0.1,1.5-0.4,1.7-1.1l1.2-0.7l0.6-0.5c1.7-1.6,3.2-3.4,4.5-5.4
		c3.7-5.1,4.4-11.1,5-17.1c0.8,2.5,0.9,5.1,0.4,7.6c-1.3,7.6-5.6,14.2-12,18.5c-0.7,0.5-1.4,1.1-2.1,1.6c-5.5,2.2-10.9,4-17.1,3.2
		c-9.2-1.2-16.1-5.8-21.2-13.4l-1.2-1.7c-0.1-1.1-0.6-2.2-1.3-3.1c0-0.5-0.1-1-0.6-1.2c0.1-0.7-0.1-1.5-0.6-2.1v-0.3
		c-0.7-4.4-0.7-8.9,0-13.3c1.6-5.4,4.5-10.3,8.4-14.3c4.8-4.2,10.9-6.8,17.3-7.5c7.1-0.7,13.3,1.6,19.2,5.3c0.6,0.3,1.5,1,0.9,1.9
		c-0.9,1.2-1.5-0.1-2.2-0.5s-0.8-1.2-1.6-1.2c-0.3-0.7-1-1.2-1.8-1.2c-0.4-0.5-1.1-0.8-1.8-0.7c-0.2-0.5-0.8-0.6-1.2-0.7l-0.7-0.3
		l-1.2-0.2l-1.2-0.4c-0.2-0.1-0.4-0.1-0.6-0.1l-1.1-0.1c-0.2-0.1-0.4-0.1-0.6-0.2l-0.7-0.2c-3.3-0.3-6.7-0.6-9.8,1l-0.2-0.1
		c-0.8-0.1-1.5,0.2-2.1,0.7c-1.4,0.2-2.8,0.8-3.9,1.8c-0.5,0-1,0.2-1.3,0.7l-0.8,0.6c-1.4,0.6-2.6,1.5-3.4,2.8l-0.6,0.9l-0.9,0.6
		c-0.2,0-0.3,0.2-0.4,0.4l-0.7,1c-0.1,0-0.3,0.1-0.3,0.2c-1.5,1.5-2.6,3.4-3.2,5.5C167.6,88.3,167.2,89.5,167.2,90.7L167.2,90.7z"/>
	<path class="st14" d="M182.2,99.1c-0.3-3.4,1.1-6.8,3.7-9.1l0.6-0.5l0.6-0.6c0.5,0,1-0.2,1.2-0.6c0.5,0.1,1-0.2,1.2-0.6
		c0.9,0,1.8,0.2,2.4-0.6h1.8c0.1,0.1,0.2,0.1,0.3,0c0.8,0.5,1.7,0.7,2.6,0.6l4.1,2.6l0.8,0.9c0.4,0.4,0.7,0.8,1.1,1.2
		c0,0.5,0.2,1,0.6,1.2l0.6,1.4c-0.1,0.1-0.1,0.2,0,0.3c0.1,0.6,0.2,1.2,0.2,1.8v2.4c0,0.8-0.2,1.4-0.3,2.1c-4.5,7.1-8,8.6-15.3,6.7
		c-0.5-0.6-1.2-1-1.9-1.1l-0.6-0.6l-0.6-0.6l-1-1.2c-0.3-0.7-0.6-1.5-1.3-1.8c0.1-0.7-0.1-1.4-0.6-1.8
		C182.3,100.6,182.2,99.8,182.2,99.1L182.2,99.1z M193.2,88.8c-5.3,0-9.5,4.2-9.6,9.5c0.1,5.2,4.3,9.5,9.5,9.6
		c5.2-0.1,9.5-4.3,9.6-9.6C202.6,93.1,198.4,88.9,193.2,88.8z"/>
	<path class="st8" d="M212.3,70.8c-0.1,0.8-0.3,1.7-1.1,1.5c-1.5-0.3-2-1.8-2.4-3.1c-0.2-0.5,0.1-1.1,0.7-1.2c0.2-0.1,0.4-0.1,0.6,0
		C211.4,68.3,212.3,69.5,212.3,70.8L212.3,70.8z M200.8,90.3l-4.1-2.6c0.6,0,1.2,0,1.7-0.1C201.9,87.2,201.9,87.2,200.8,90.3
		L200.8,90.3z M186.2,72.6c3.1-1.6,6.5-1.3,9.8-1L186.2,72.6z"/>
	<path class="st9" d="M204.1,99.6v-2.4h1C205,98.1,205.5,99.3,204.1,99.6z"/>
	<path class="st8" d="M191.9,87.1c-0.7,0.8-1.6,0.6-2.4,0.6C190.1,86.7,191.1,87.1,191.9,87.1z M205.1,74.4c0.8,0,1.5,0.5,1.8,1.2
		C206.1,75.7,205.4,75.2,205.1,74.4z M196.7,87.7c-0.9,0.1-1.9-0.1-2.6-0.6C195,87.1,196,86.7,196.7,87.7z M193.7,87.2h-1.8
		C192.6,86.1,193.2,86.3,193.7,87.2z M202.6,92.5c-0.4-0.4-0.7-0.8-1.1-1.2C202.4,91.3,202.7,91.7,202.6,92.5z M204.5,97.2h-0.4
		c-0.1-0.6-0.2-1.2-0.2-1.8C204.6,95.8,204.5,96.5,204.5,97.2z M203.3,73.7c0.7-0.1,1.3,0.2,1.8,0.7
		C204.4,74.4,203.7,74.6,203.3,73.7z M183.9,73.1c0.6-0.5,1.3-0.7,2.1-0.7C185.5,73.4,184.6,73.2,183.9,73.1z M203.8,95l-0.6-1.4
		C203.9,93.9,203.9,94.5,203.8,95z"/>
	<path class="st8" d="M203.3,93.7c-0.4-0.3-0.7-0.7-0.6-1.2C203.1,92.7,203.4,93.2,203.3,93.7z M188.3,88.3
		c-0.2,0.4-0.7,0.7-1.2,0.6C187.3,88.3,187.8,88.2,188.3,88.3z M189.5,87.7c-0.3,0.4-0.7,0.7-1.2,0.6
		C188.5,87.8,189,87.6,189.5,87.7z M178.7,75.6c0.3-0.4,0.8-0.7,1.3-0.7C179.7,75.4,179.2,75.7,178.7,75.6z M202.1,73.1
		c0.5,0.1,1,0.1,1.2,0.7C202.8,73.8,202.3,73.7,202.1,73.1L202.1,73.1z M200.3,72.6l1.2,0.2C200.9,73.3,200.6,73.1,200.3,72.6z
		 M172,81.7l0.7-1L172,81.7z M173,80.4l0.9-0.6L173,80.4z M173.9,79.8l0.6-0.9L173.9,79.8z M177.9,76.2l0.8-0.6L177.9,76.2z
		 M187.1,88.8l-0.6,0.6L187.1,88.8z M198.5,72c0.2,0,0.4,0,0.6,0.1C198.8,72.4,198.7,72.3,198.5,72z M196.8,71.7
		c0.2,0,0.4,0.1,0.6,0.2C197,72.5,196.8,72.3,196.8,71.7z"/>
	<path class="st6" d="M142.7,111.9l-12.6-0.4c4.5-1.1,9.1-0.2,13.7-0.5C143.8,111.7,143.1,111.7,142.7,111.9L142.7,111.9z"/>
	<path class="st10" d="M166.1,108.6c0.7,0.9,1.2,1.9,1.3,3.1l-1.3-0.6V108.6z"/>
	<path class="st6" d="M81.5,110.2l-20.3-0.5c3.2-1.1,6.5-0.3,9.8-0.4c2.7-0.1,5.4-0.1,8.1,0C79.9,109.3,81.1,108.8,81.5,110.2z
		 M18.4,174c0.1,6.8,0.3,13.6,0.4,20.3c-0.9-0.2-1-0.9-1-1.6c0-5.9,0-11.8,0.1-17.7C18,174.7,18.3,174.4,18.4,174z M17.3,127.2
		c0.1,6.4,0.3,12.8,0.4,19.1c-0.6-0.1-1-0.7-0.9-1.3v-16.8C16.8,127.9,17.1,127.6,17.3,127.2z M126.5,111.4l-19.1-0.5
		c2-1.1,4.2-0.4,6.4-0.5c3.4-0.1,6.9-0.1,10.4,0C124.9,110.5,126.1,110,126.5,111.4L126.5,111.4z M58.7,109.6l-18.5-0.5
		c5-1.1,10.1-0.2,15.1-0.4C56.4,108.6,58,107.9,58.7,109.6z M17.9,151.2c0.3,7,0.3,14,0,20.9c-1-1.2-0.5-2.7-0.5-4
		C17.6,162.5,16.7,156.8,17.9,151.2z M38.3,109c-4.6,0.3-9.2-0.8-13.7-0.1c0.3-1,1.2-0.9,2-0.9h9.9C37.2,108,38.1,107.9,38.3,109z"
		/>
	<path class="st13" d="M150.5,71.4c2.5,0.2,5,0.4,7.4,0.5c1.1,0,2.4,0.4,3.3-0.5c1.2,2.1-0.3,2.4-1.8,2.3c-1.1-0.2-2.3,0-3.1,0.8
		C154.4,76.2,151.2,74.3,150.5,71.4L150.5,71.4z"/>
	<path class="st10" d="M165,91.8c-0.7,4.4-0.7,8.9,0,13.3C162.8,100.6,163.1,96.2,165,91.8z M165,105.3c0.5,0.6,0.7,1.3,0.6,2.1
		C164.7,106.9,165,106.1,165,105.3z M165.5,107.4c0.5,0.3,0.6,0.8,0.6,1.2C165.7,108.4,165.4,107.9,165.5,107.4z"/>
	<path class="st8" d="M281.3,45.6l0.6-0.6L281.3,45.6z"/>
	<path class="st9" d="M188.5,108.4c7.4,2,10.8,0.5,15.3-6.6c0.1,0.8-0.1,1.7,0.9,2c0.8,0.3,1.4,1,1.4,1.8c0.1,4.6,2.8,9.1,0.5,13.7
		c-0.5,0.9,0.1,1.3,0.9,1.4c-5.2,4.5-11.5,5.4-17.9,4.6c-11.5-1.4-19.9-9-22.9-20.3c0.7-0.6,0.8-1.2-0.1-1.8c0-1.8,0-3.6,0.1-5.4
		c1.9,0.2,3.7,0.9,5.6,0.6c2.6-0.3,4.5,0.2,5.6,3c0.8,1.9,3.6,1.5,5,3c-0.6,3.4,1.5,4.1,4.2,4.2c0.1,0.4,0.1,1,0.7,0.9
		c0.2,0,0.3-0.6,0.5-0.9L188.5,108.4L188.5,108.4z"/>
	<path class="st3" d="M240.4,117.5c5,0.1,9.9,0.5,14.9-0.2c1.9-0.3,3.7,1,5.7,1c12.3,0.1,24.6,0.2,36.8,0.7
		c6.9,0.3,12.7,3.2,12.3,12.5c-0.4,8.1,0.1,16.2-0.2,24.3c-0.3,6.7-0.4,13.4-0.5,20c0,0.8,0.4,2.2-0.8,2.2c-1.5,0-0.9-1.5-0.9-2.4
		c0.1-9.6,0.4-19.2,0.5-28.7c0.1-5.1-0.2-10.2,0.1-15.3c0.4-7.3-3.8-10.4-10.5-10.9h-0.6l-39.2-0.8c-0.1,0-0.2-0.1-0.3,0
		c-1.7,1.4-3.4,1.8-4.8-0.4c-0.1-0.2-0.8-0.1-1.2-0.1h-12.3C239.4,118.7,239.7,117.9,240.4,117.5L240.4,117.5z"/>
	<path class="st9" d="M215.6,112.9c-1.3,2-2.8,3.8-4.5,5.4c-0.4-2.6-1.2-5-0.7-7.7c0.3-1.4,0.6-2.5,2-2.3c1.2,0.1,2.6,0.7,1.8,2.6
		C213.8,112,214.3,112.8,215.6,112.9L215.6,112.9z M210.5,118.8l-1.2,0.7C209.5,118.9,210,118.8,210.5,118.8z M221.5,129.1l-0.8,0.6
		L221.5,129.1z"/>
	<path class="st13" d="M137,172.8l-1,3.1c-0.6,0.4-0.6,0.8,0,1.2c0.3,0.8,0.6,1.6,0.8,2.4c-2,0.6-2.1,1.9-1.5,3.7
		c0.6,1.5-0.1,3.1-1.6,3.7c-0.2,0.1-0.4,0.1-0.6,0.2c-2.2,0.3-1.1-1.8-1.2-2.9c-0.2-2.2,0.1-4.5-1.4-6.5c0-0.1,0-0.2,0.1-0.3
		c0-0.8,0.2-1.6-0.6-2.1c-1.5-3.8-2.9-7.6-5.4-10.8c-0.8-1-1.2-2.4-2.8-2.3c-0.7,0.4-0.7,0.8,0,1.2c1.4,1.2,2.4,2.8,3,4.5l0.6,0.9
		c-0.1,0.5,0.2,1,0.6,1.2c-0.1,0.5,0.1,1,0.6,1.3c0.1,0.1,0.1,0.2,0.1,0.3c-0.2,0.8-0.6,2-1.4,0.9c-1.6-2.1-3.9-2-5.9-2.2
		c-3.7-0.4-6-3-9.1-4.4c-1.6-0.7-2.6-1.3-4.3-0.5c-2.1,0.9-4.2,1.3-5.6-1.3c-0.6-1.1-1.8-1.2-2.9-1.1s-2.2,0.1-3.1-0.8
		c-1.7-1.7-3.7-1.8-6-1.3c-1.9,0.4-4.2,1.9-6,0.1c-2-2.3-5.1-3.2-8-2.4c2.3-2,4.9-3.7,7.8-4.8l0.7-0.4c4.9-1.9,10.2-2.2,15.3-3.2
		c-10.9-1.4-19.9,2.5-27.7,9.7c-1.3-2.3-3.4-4.1-3.7-7.1c-0.2-2.6-1.5-4.3-4.2-5.5c-2.6-1.1-3.6-0.4-4.1,1.8c-0.3,1.1-0.6,2-1.7,2.1
		c-2.8,0.4-5.6,0.5-7.8-1.7l-3.3-3l0.8-1.1l0.6-0.7l0.5-0.6c0.4,0.4,1,0.7,1.3,1.2c1.3,2.4,3.2,1,4.7,0.6c1.7-0.5,0-1.8,0.2-2.8
		c2.4-0.6,4.3,1.1,6.5,1.5c1.4,0.2,2.2,0.1,2.9-0.6c3.4-3.2,7.4-5.7,11.8-7.5c1-0.3,1.6-1.2,1.6-2.2c0.1-1.1,0.3-2.2,0.6-3.2
		c1.6-7.7,1.6-7.7,9.4-8.9c0.4-0.1,0.8,0,1.2-0.1c6.6-0.9,6.8-1,9.5,5.1c1.6,3.7,3.9,5.5,7.9,5.8c2.9,0.2,5.7,1,8.4,2.2
		c1.9,1,4.2,0.7,5.8-0.8c1.7-1.4,3.6-2.5,5.4-3.8s2.9-1.4,4.7,0c3.1,2.3,5.9,5,9.6,6.5l0.6,0.6c-0.1,3.5-1.6,6.7-2.6,10
		c-0.7,1.7-0.3,3.6,0.9,4.9c2.5,3,4.5,6.3,6,9.9c0.5,1.7,2,3,3.8,3.3c-2,1-4,2-6,3.1C139.4,169.5,137.4,170.4,137,172.8L137,172.8z
		 M133.2,178.7c0.2-0.4,0.4-0.6,0.4-0.8c0-0.4-0.2-0.7-0.7-0.6c-0.2,0.1-0.3,0.5-0.3,0.7S132.9,178.4,133.2,178.7L133.2,178.7z"/>
	<path class="st7" d="M297.8,198.6c-3.4-0.2-6.8,0.2-10,1.2c-0.4-0.7-0.9-1.4-1.2-2.1c-2.5-5.6-7.2-9.9-12.9-12
		c-2.8-1.1-2.8,0-2.6,2.1c1,9.3,1.6,18.6,3.2,27.8l-17.1-3.6c-1.5-1.2-3.6-1.7-5.5-1.3v0.1c-1.6-2.4-4-1.2-6-1.3v0.1
		c-1-1.4-2.1-2-3.6-0.7l-1.1-0.2c-2.1-4.8-2.6-10.4-7.6-13.6c-0.2-0.1-0.1-0.7-0.2-1.1l0.1-0.1c1-1.2,2.9-2.1,1.7-4.2v-1.2
		c1.1-1.4,0.7-2.4-0.9-3c-0.4-0.8-0.4-1.6-0.3-2.4c1.1-2.2,0.4-4.1-1-6c-0.4-2.6-0.4-5.2,0-7.8c1.2-0.7,2.1-1.6,0.9-3
		c0.5-2.6,2.9-2.3,4.7-2.9c1-0.4,2.2-0.2,3.1-0.8c4.5,2.2,8.7,1.9,12.7-1.2c0.5-0.3,1.1-0.5,1.6-0.6c3.6-0.7,7.3-0.8,10.9-0.2
		c7.7,3.5,14.1,8.8,20,14.7c4.6,4.4,8.1,9.9,10,16c0.4,1.4,0.6,2.9,0.7,4.4c-0.3,0.8-0.1,1.6,0.3,2.2L297.8,198.6L297.8,198.6z"/>
	<path class="st9" d="M126.8,213c0.8,4.3,4.1,7.2,6.4,10.7l-1.9,1.2l-1.8,0.1c-0.3-0.4-0.4-0.3-0.6,0.1l-0.6,0.8l-0.5,0.4l-0.7,0.6
		c-0.5-0.1-1,0.2-1.2,0.6l-0.6,0.6c-0.8-0.1-1.6,0.4-1.8,1.2c-0.6,0-1,0.1-1.2,0.8c-0.4,0.3-0.9,0.6-1.3,0.9
		c-0.3-0.3-0.4-0.1-0.6,0.2c-0.5-0.1-1,0.2-1.2,0.6c-0.8,0-1.7-0.1-1.8,1l-1.1,0.2c-3.6-0.2-6.6-2.4-10-3.3c-1.6-0.5-3-1.4-4.9-1.6
		c-2.4-0.3-5.6,0.4-6.1-3.6c-0.2-0.8-0.9-1.3-1.7-1.1h-0.1c-2.9,0.5-5.8-2.3-8.9-0.1c-0.9,0.7-2.1-0.5-2.6-1.5
		c-1-2.1-2.7-2.1-4.6-1.9c-4.4,0.6-4.4,0.6-5.7-3.8c-0.9,3.3-3.3,3.1-5.2,2.2c-4.8-2.6-10.8-0.7-15.2-4.5c-0.1-0.2-0.1-0.3-0.1-0.5
		c0-0.5-0.1-1-0.6-1.3l-0.6-0.7c-0.1-0.1-0.1-0.2,0-0.3c-0.2-0.3-0.4-0.6-0.6-0.8c0.1-0.5-0.2-1-0.6-1.2c0-0.5-0.1-1-0.7-1.2
		c-0.4-0.2-0.6-0.7-0.5-1.1c0-0.5-0.1-1.1-0.7-1.3l-1.2-1c0.7-1-1.7-1.6-0.4-2.5c0.6-0.5,1.4-0.8,0.7-1.5s-1.7-0.3-2.6-0.4
		c-0.7,0-1.8,0-1.7,0.8c0.7,2.9-0.9,1.9-2.4,1.7c-0.9-0.3-1.8-0.2-2.6,0.4c-1.1,0-2.3,0-2.9-1.1c0.7-3.5-0.1-6.8-1-10.1l-0.4,0.7
		c-1.6-5.2-1.6-5.2,2.9-7.5l0.3-0.1c4.7-1.8,8.3-4.4,7.9-10.2c0.1-0.5,0.2-1,0.5-1.4c0.9,0.8,0.5,1.9,0.6,2.8
		c0.1,0.8,0.3,1.4,1.3,1.2c3.2-0.7,5.6,1.4,8.3,2.5c2,0.6,3.2,2.5,3,4.6c-0.2,1.4,0.5,2.7,1.8,3.3v-7.8c0-1-0.4-2.3,1.3-2.5
		c0.1,1.6-0.6,3-0.7,4.6c-0.4,5.8,0.8,11.4,2.4,16.9c0,0.5,0,1,0.6,1.3c-0.2,1.2,0.7,2.5-0.7,3.5c-0.4,0.3-0.5,0.8-0.2,1.2l0.3,0.3
		c0.7,0.5,1,0,1.2-0.7c0.2-0.6,0.6-1.1,1.1-1.3c0.1,0.1,0.1,0.2,0.1,0.3l0.6,0.9c-0.1,0.5,0.2,1,0.7,1.2l0.6,0.6l0.6,0.9l0.6,0.9
		l0.6,0.6l0.6,0.6l0.6,0.6c-0.3,1.5,0.7,2,1.9,2.4l0.5,0.5c0.2,0.6,0.7,0.7,1.2,0.7c0.2,0.6,0.7,0.7,1.2,0.7
		c-0.3,2.2,0.7,2.5,2.5,1.8c0.2,0.5,0.7,0.6,1.2,0.6l0.9,0.6l2.7,1.2c0.2,0.5,0.8,0.7,1.3,0.6c0.3,0.6,0.9,0.6,1.5,0.6l0.1-0.1
		l0.1,0.1c0.9,1.6,2.1,1.6,3.6,0.8l0.7,0.2c4.1,2.1,9,2.2,13.2,0.1h0.8c0.8,0,1.6,0.3,2.1-0.6c0.7,0,1.4,0.2,1.8-0.6
		c0.7,0,1.4,0.2,1.8-0.6c0.5,0.1,1-0.1,1.2-0.6c0.5,0.1,1-0.1,1.3-0.6l4.1-2.4c0.6,0,1.1-0.1,1.2-0.8c2.1-2,4.3-3.9,6.4-5.9
		c1.2,0.5,2.5,1.1,2,2.7C123.8,213.2,125.3,213.1,126.8,213L126.8,213z M56.9,208.6v-0.9c0-1.3,0.3-2.8-1.6-3s-1.9,1.2-2.2,2.5
		c-0.2,1-0.4,1.9-0.8,2.9c-0.5,1.4,0.2,2,1.3,2.5C55.9,213.5,56.9,212.2,56.9,208.6z M34.9,195.7c1.1,0.6,1.9,0.7,2.6,0
		c0.2-0.3,0.2-0.7-0.1-0.9c0,0-0.1,0-0.1-0.1C36.3,194.2,35.6,194.7,34.9,195.7z M59.1,189.2c0-0.1,0.1-0.2,0.1-0.2
		s-0.1-0.1-0.2-0.1c0,0.1-0.1,0.2-0.1,0.2S59,189.1,59.1,189.2z"/>
	<path class="st10" d="M51.6,213.6c4.3,3.8,10.4,1.9,15.2,4.5c1.8,1,4.3,1.1,5.2-2.2c1.3,4.4,1.3,4.4,5.7,3.8
		c1.9-0.3,3.6-0.2,4.6,1.9c0.5,1,1.6,2.2,2.6,1.5c3.1-2.2,5.9,0.7,8.9,0.1c0.8-0.2,1.6,0.2,1.8,1v0.1c0.4,4,3.6,3.3,6.1,3.6
		c1.8,0.2,3.3,1.1,4.9,1.6c3.4,1,6.4,3.1,10,3.3c-2.2,3-1.9,6.6-2.4,10c-0.4,2.4-1.4,3.5-3.7,3.7c-3.4,0.4-6.9,0.9-10.3,1.6
		c-1.5,0.3-2.4,0-3.1-1.4c-1.3-2.7-2.8-5.3-4.2-7.9c-0.4-1.1-1.3-1.8-2.4-1.8c-4.5-0.3-8.9-1.3-13-3c-1.3-0.6-2.8-0.4-3.8,0.5
		c-2,1.6-4.2,3-6.3,4.5c-1.4,1-2.7,1.4-4.3,0.1c-3-2.4-6-4.6-9.2-6.7c-1.2-0.6-1.6-1.9-1.1-3.1c0,0,0-0.1,0.1-0.1
		c0.8-2,1.1-4.3,2-6.3c1.1-2.6,1.2-4.7-1.1-6.7C52.7,215.5,52.1,214.6,51.6,213.6z"/>
	<path class="st8" d="M60.7,177c-1.7,0.1-1.3,1.4-1.3,2.5v7.8c-1.3-0.6-2-1.9-1.8-3.3c0.2-2-1-4-3-4.6c-2.7-1.1-5.1-3.2-8.3-2.5
		c-0.9,0.2-1.2-0.4-1.3-1.2c-0.1-1,0.3-2-0.6-2.8c0-0.4,0.1-0.8,0.2-1.1c3.1-5.8,1.5-10.7-2.8-15.1c-2-2.1-1.8-3.9,0-5.9
		c1.3-1.4,2.3-2.9,3.5-4.4c1.1,1,2.3,1.9,3.3,3c2.2,2.2,5,2.1,7.8,1.7c1.1-0.1,1.4-1,1.7-2.1c0.6-2.2,1.6-2.9,4.1-1.8
		c2.8,1.1,4,2.9,4.2,5.5c0.2,3,2.4,4.8,3.7,7.1C65.7,164.6,62.4,170.5,60.7,177L60.7,177z"/>
	<path class="st10" d="M268.2,249.5c-1.1,0-1.9,0.9-1.9,1.9v0.3c0.2,1.6-0.9,3.2-2.5,3.4c-0.8,0.2-1.5,0.5-2.1,1
		c-1.9,1.3-3.8,1.5-5.5-0.6v6.1h-0.5c-1.4-9.2-2.8-18.4-4.3-27.6c7.8,2.3,15.6,4.5,23.4,6.7c3.6,1,7.2,2.1,10.8,3.2
		c-1.1,1.3,0.2,2.4,0.5,3.5c0.9,2.9,2.4,5.6,2.6,8.7c-1.8,0.5-3.2-0.5-4.8-0.7c-3.6-0.7-7.4-1.1-11,0.3c-1.9-1.8-2.1-4.5-3.5-6.5
		c-0.2-0.4-0.3-1.1-0.9-0.7C268.2,248.5,268.2,249.1,268.2,249.5L268.2,249.5z"/>
	<path class="st6" d="M257.2,212l17.1,3.6c3.4,1.1,7.1,1,10.3,2.6c0.6,0.6,1.3,1.3,1.9,2l-25.3-5.2l-36.4-7.5
		c-9.9-2-19.8-4.2-29.7-6.1c-2.7-0.5-3.3-1.8-3.4-4.4c-0.8-16.6-12.2-27.4-27-30.1c-9.2-1.7-18.2-0.2-26.2,5.3
		c-0.5,0.3-1.1,0.4-1.7,0.5c0.4-2.4,2.4-3.2,4.1-4.2c2-1.1,4-2.1,6-3.1c5-1.2,10.2-1.7,15.3-1.6c0.7,0.4,1.6,0.5,2.4,0.4
		c7.9,1.7,14.9,4.9,20.2,11.3c4.9,5.6,7.5,12.9,7.5,20.3c0,2.4,0.7,3.2,3,3.6c10,1.9,19.9,4,29.8,6c2.6,0.8,5.2,1.3,7.9,1.6
		c2.5,0.8,5.2,1.3,7.8,1.6l1.1,0.2c1.1,0.5,2.3,0.7,3.6,0.7v-0.1c1.8,1.2,4,1.1,6,1.3v-0.1C253.3,212.5,255.5,211.4,257.2,212
		L257.2,212z M253,129.1c1.6,1.6,2.6,3.2,1,5.4c-0.4,0.6-0.3,1.4,0.3,1.9c1.7,1.7,1.4,3.3-0.1,4.9c-3.3-1.4-4.3-0.9-5.1,2.4
		c-0.2,0.9-0.3,1.9-0.5,2.9c-0.9,0.9-1.4,2.1-1.5,3.4c-0.4,2.5-1.6,4-4.3,4.1l-1,0.1c-0.2-0.1-0.4-0.1-0.6-0.1
		c-6.3-0.3-7.1-1.4-5.3-7.8c0.1-0.9,0.5-1.7,1.1-2.3c1.3,0.3,2.5,0.8,3.5,1.6c3.4,2.2,4.4,1.8,5.4-2.3c2.1-9.2,2.1-9.2-7.1-9.8
		l-0.6-0.3c1.2-0.9,2.6-0.5,4-0.5c5.1-0.1,5.1,0,2.7-4.5c1.7,0.7,3.4,1.9,5.4,0.7L253,129.1L253,129.1z"/>
	<path class="st11" d="M241.8,154.2l1-0.1v3.7c0.8-2.1,2.4-1.7,3.9-1.8s3.3,0.3,4.7-0.2c2.1-0.7,0.3-3.1,1.4-4.4l0.2-0.2
		c0.9,2,1.3,4.1,1.2,6.3c0,1.9,0.4,2.6,2.6,2.3c2.8-0.2,5.6-0.3,8.3-0.2c0.7,0,1.4,0.1,1.7,0.9c-3.6-0.6-7.3-0.5-10.9,0.2
		c-0.6,0-1.1,0.2-1.6,0.6c-3.9,3.1-8.2,3.4-12.7,1.2L241.8,154.2L241.8,154.2z M238.7,133.4c9.3,0.6,9.3,0.6,7.1,9.8
		c-0.9,4.1-2,4.5-5.4,2.3c-1-0.8-2.2-1.3-3.5-1.6C237.5,140.4,237.7,136.9,238.7,133.4z"/>
	<path class="st4" d="M241.1,208.7c-2.6-0.3-5.3-0.8-7.8-1.6c-0.7-2.4-2.5-4.2-3.9-6.3l0.3-0.5l0.4-0.5l0.2-0.6
		c0.4-0.2,0.6-0.6,0.6-1c0.8-1.4,1.2-3,2.4-4.2c0,0.4,0,1,0.2,1.1C238.5,198.2,239,203.9,241.1,208.7L241.1,208.7z"/>
	<path class="st2" d="M244.8,128.1c2.5,4.5,2.5,4.5-2.7,4.5c-1.3,0-2.8-0.5-4,0.5c-2.2-0.5-2.8-2-2.4-4c0.5-2.5,1.8-4.5,4.5-4.8
		c2.1-0.2,3.9,0.4,4.3,2.9l-0.2,0.2c0.1,0.1,0.2,0.3,0.3,0.4C244.8,127.9,244.8,128,244.8,128.1L244.8,128.1z"/>
	<path class="st12" d="M253,151.2l-0.2,0.2c-1.1,1.3,0.8,3.7-1.4,4.4c-1.4,0.5-3.1,0.1-4.7,0.2s-3.1-0.3-3.9,1.8v-3.7
		c2.7-0.1,3.8-1.6,4.3-4.1c0.1-1.3,0.6-2.5,1.5-3.4c1.9-0.7,3,0.7,4.2,1.8L253,151.2z"/>
	<path class="st11" d="M203.6,219.5c-0.1-1.5-1.3-3.3,0.5-4.4c1.8-1.1,3.2,0.2,4.6,1.2c1.5,0.9,2.7,2.1,3.5,3.6
		c0.7,1.3,1.8,2.4,3.1,3.1C210.9,223.4,206.8,222.9,203.6,219.5L203.6,219.5z"/>
	<path class="st3" d="M156.6,151.3c0.9,0.2,1.8,0.6,2.6,1.1c2.2,2,4.7,3.5,7.5,4.5c0.4,0.2,0.6,0.7,0.4,1.2c0,0,0,0.1-0.1,0.1
		c-0.4,0.6-0.9,0.7-1.5,0.4c-3.4-1.4-6.5-3.2-9.4-5.4c-0.6-0.3-0.8-0.9-0.6-1.5C155.6,151.4,156,151.2,156.6,151.3L156.6,151.3z"/>
	<path class="st11" d="M252.8,148.3c-1.2-1-2.3-2.4-4.2-1.8c0.2-1,0.3-1.9,0.5-2.9c0.8-3.3,1.8-3.7,5.1-2.4
		C254.9,143.9,252.6,145.8,252.8,148.3L252.8,148.3z M229.4,200.8c1.4,2,3.2,3.8,3.9,6.3c-2.7-0.3-5.3-0.8-7.9-1.6
		C226.4,203.7,227.8,202.1,229.4,200.8z"/>
	<path class="st10" d="M37.2,202.7c0.7-0.6,1.7-0.7,2.6-0.4c1.4,0.3,3.1,1.3,2.4-1.7c-0.2-0.8,1-0.8,1.7-0.8c0.9,0,1.9-0.4,2.6,0.4
		s-0.1,1.1-0.7,1.5c-1.3,1,1.1,1.5,0.4,2.5L37.2,202.7z"/>
	<path class="st8" d="M53.3,142.9c-0.2,0.9,1.5,2.3-0.2,2.8c-1.5,0.4-3.4,1.9-4.7-0.6c-0.2-0.5-0.8-0.8-1.3-1.2
		c0.3-1,0.8-1.7,1.9-1.8c0.9,1.2,1.8,2.4,2.5-0.1L53.3,142.9L53.3,142.9z"/>
	<path class="st3" d="M307.9,207.8v-13h0.9c0.3,4.3,0.3,8.7,0.1,13H307.9z M97.7,114c-1-0.2-2.6,0.3-2.5-1.2c0-1.4,1.4-1.1,2.4-1.1
		s2.5-0.5,2.5,1.2C100,114.4,98.5,113.8,97.7,114z M96.1,256.2c-1.1-0.2-2.7,0.4-2.8-1.1c-0.1-1.5,1.2-1.2,2.2-1.2s2.5-0.3,2.6,1.1
		C98.3,256.7,96.8,255.9,96.1,256.2z M25.7,180.8c-0.1,1,0.3,2.6-1.3,2.5c-1.3,0-1-1.5-1-2.4s-0.2-2.5,1.3-2.5
		S25.5,179.9,25.7,180.8z M228.7,154.6c-0.8,0-1.4-0.4-1.2-1.1c0.5-1.5,1.9-2.2,3.3-2.7c0.4-0.2,0.8,0,1,0.3
		c0.1,0.1,0.1,0.2,0.1,0.4C231.8,153.4,229.8,153.6,228.7,154.6L228.7,154.6z M32.7,215.1c0,0.8-0.3,1.5-1,1.3
		c-1.6-0.5-1.8-2.2-2.3-3.5c-0.2-0.7,0.3-1.6,1.1-1.3C32.2,212.1,31.8,214,32.7,215.1z M175.1,160.5c0,0.9-0.4,1.5-1,1.3
		c-1.3-0.5-3.1-0.2-3.6-2c-0.2-0.6,0.5-1.3,1-1.1C172.8,159.2,174.4,159.2,175.1,160.5z M181.4,163.7c-1-0.7-2.8-0.1-3-1.9
		c-0.1-0.8,0.8-1.1,1.6-0.7c1.1,0.6,3.2-0.4,3.3,1.7C183.4,164,182.2,163.7,181.4,163.7L181.4,163.7z M119.1,252.3
		c-0.7,0.1-1.4-0.2-1.3-0.9c0.4-1.8,2.2-1.6,3.5-2.2c0.8-0.3,1.6,0.2,1.4,1C122.1,251.9,120.3,251.7,119.1,252.3L119.1,252.3z
		 M27.9,161.5c0.7,0.3,1.1,1.1,0.8,1.8c0,0.1-0.1,0.2-0.1,0.2c-0.4,1.1-0.1,2.9-1.9,3c-0.9,0-1.1-1.1-0.7-1.9
		C26.5,163.5,26.3,161.9,27.9,161.5z M39.3,139.2c0.9,0.1,1.6,0.4,1.2,1.1c-0.7,1.3-1.3,2.9-2.9,3.4c-0.4,0.1-1-0.4-0.8-1
		C37.1,141.2,38,140,39.3,139.2z M24,172.8c0.4-1,0.2-2.6,1.9-2.8c0.5,0,0.9,0.4,0.9,0.9c0,0.1,0,0.3-0.1,0.4
		c-0.6,1.1,0.4,3.1-1.4,3.5C24,175.1,24.1,173.8,24,172.8L24,172.8z M25.7,189.6c-0.1,0.8,0.3,2.2-0.8,2.2c-1.5,0-1.4-1.6-1.5-2.7
		c-0.1-0.9-0.1-2.1,1-2.1C26.2,186.9,25.5,188.6,25.7,189.6z M79.9,115.7c-1.1-0.1-1.9-0.3-1.6-1.2c0.5-1.8,2.4-0.9,3.6-1.5
		c0.5-0.2,1.1,0.1,1.3,0.6c0.1,0.2,0.1,0.3,0,0.5C82.7,116.1,80.5,114.5,79.9,115.7L79.9,115.7z M113.8,114c1,0.5,2.8,0,3,1.9
		c0.1,0.4-0.2,0.9-0.7,1c-0.2,0-0.3,0-0.5-0.1c-1.2-0.6-3,0.1-3.4-1.7C112,114.1,112.9,114.1,113.8,114L113.8,114z M52.6,128.5
		c-1.1,0.8-1.9,2.2-3.5,2.7c-0.4,0.1-1.1-0.5-0.8-1c0.7-1.4,1.7-2.7,3.5-2.9C52.2,127.2,52.6,127.6,52.6,128.5z M224.7,156.2
		c-0.8,1.3-2.1,2.1-3.6,2.1c-0.5,0-1.1-0.3-0.9-0.9c0.5-1.7,2.1-1.9,3.4-2.4C224.2,154.9,224.7,155.4,224.7,156.2L224.7,156.2z
		 M205.7,163.5c-1,0.1-1.8-0.2-1.6-1c0.4-1.7,2.2-1.2,3.3-1.6c0.5-0.2,1,0.1,1.2,0.5c0.1,0.2,0.1,0.4,0,0.6
		C208.3,164,206.3,162.6,205.7,163.5z M46.1,134c-1,0.9-1.4,2.6-3.1,2.7c-0.4,0.1-0.9-0.1-1-0.5c-0.1-0.2,0-0.4,0.1-0.6
		c0.8-1.2,1.6-2.6,3.2-2.8C45.9,132.7,46.1,133.3,46.1,134L46.1,134z M146.3,142.4c0,1-0.2,1.7-0.9,1.5c-1.6-0.4-2.1-1.9-2.6-3.2
		c-0.2-0.4,0.1-1.2,0.7-1.1C144.7,140.1,145.7,141.1,146.3,142.4z M27.4,203.6c1.6,0.3,1.3,1.8,1.7,2.8c0.3,0.8,0.2,2.2-0.9,2
		c-1.3-0.3-1.2-2-1.8-3.2C26.2,204.5,26.6,203.9,27.4,203.6L27.4,203.6z M26.9,198.2c-0.2,0.8,0.3,2.2-1,2s-1.2-1.8-1.4-2.9
		c-0.1-0.8,0-2,0.9-1.8C27,195.6,26.8,197.1,26.9,198.2z M33.5,150.5c-1,0-1.2-0.5-1.1-1.2c0.2-1.4,1-2.6,2.2-3.3
		c0.5-0.3,1.3,0.4,1.1,1C35.3,148.4,34.9,149.9,33.5,150.5z M89.1,114c-1.2,0.4-2.5,0.7-2.4-0.6c0-1.7,1.8-1,2.8-1.4s2.1-0.4,2,0.8
		C91.5,114.9,89.6,113.4,89.1,114L89.1,114z M137.2,242.2c-0.6,1.3-1.8,2.3-3.3,2.5c-0.4,0.1-1.2,0-1.1-0.6c0.4-1.8,2.1-2.1,3.4-2.8
		C136.7,241.1,137.1,241.6,137.2,242.2L137.2,242.2z M87.9,255.8c-0.7-0.6-2.6,0.6-2.6-1.4c0-0.6,0.5-1.2,1.2-1.2
		c0.2,0,0.4,0.1,0.6,0.2c0.9,0.5,2.7-0.3,2.7,1.5C89.8,255.9,88.9,256.1,87.9,255.8z M71.7,118c-0.9,0.1-1.6,0-1.5-0.8
		c0.2-1.7,1.9-1.5,3-1.9c0.6-0.3,1.6-0.2,1.6,0.8C74.6,118.1,72.5,117.2,71.7,118z M197.8,164.4c-0.8-0.2-2.2,0.4-2.1-0.9
		c0.2-1.5,1.9-0.9,3-1.3c0.8-0.3,1.7,0,1.5,1.1C200,164.8,198.7,164.2,197.8,164.4L197.8,164.4z M128.4,246c0.9-0.1,1.7,0.1,1.6,0.8
		c-0.4,1.6-2,1.7-3.2,2.1c-0.6,0.2-1.4-0.1-1.3-0.8C125.9,246.5,127.6,246.7,128.4,246z M78.8,252c1,0.2,2.4,0.1,2.5,1.5
		s-1.2,0.9-2,0.9c-1,0-2.4-0.1-2.4-1.5C76.9,251.7,78.1,252.1,78.8,252z M103.9,255.6c-0.8-0.2-2.3,0.4-2.1-0.8
		c0.2-1.6,2.1-1,3.3-1.4c0.5-0.3,1.1-0.1,1.4,0.4c0.1,0.2,0.1,0.4,0.1,0.6C106.3,255.9,104.9,255.4,103.9,255.6L103.9,255.6z
		 M64.2,121.2c-0.8,0-1.8,0.1-1.6-0.7c0.4-1.6,2-1.7,3.3-2.2c0.7-0.2,1.3,0.2,1.1,0.9C66.6,120.8,65.1,120.8,64.2,121.2z
		 M56.4,125.8c-0.9,0.1-1.3-0.3-1.2-1c0.2-1.6,1.7-1.7,2.8-2.3c0.6-0.3,1.4,0,1.3,0.7C59,124.9,57.3,125,56.4,125.8z M253,129.1
		l-2.9-0.4c0.4-0.8,0.8-1.6,1.2-2.3s0.6-2,1.8-1.4c1,0.5,0.4,1.5,0.1,2.3C253.2,128,253.1,128.6,253,129.1L253,129.1z M151.6,149.9
		c-1.3-0.6-2.3-1.7-2.8-3c-0.1-0.4,0.1-0.8,0.4-0.9c0.1,0,0.3-0.1,0.4,0c1.3,0.4,2.4,1.4,3,2.6C153,149.1,152.5,149.6,151.6,149.9
		L151.6,149.9z M31.7,155.1c-0.5,1-0.5,2.6-2,3.2c-0.7,0.3-1.1-0.5-0.9-1.1c0.3-1.3,0.5-2.8,1.9-3.4
		C31.4,153.5,31.7,154.2,31.7,155.1z M216.9,159.7c-0.7,1.3-2.1,1.3-3.4,1.6c-0.6,0.1-1.4-0.3-1.1-1c0.7-1.6,2.4-1.5,3.8-1.8
		C216.7,158.4,217,159,216.9,159.7z M111.8,254.4c-1,0-2,0.1-1.9-0.9c0.2-1.4,1.5-1.4,2.6-1.5c0.7-0.1,2-0.3,1.9,0.8
		C114.2,254.3,112.4,253.8,111.8,254.4z M106.5,114.6c-1-0.1-2.3,0.2-2.6-1.3c-0.1-0.5,0.2-1,0.7-1.1c0.2,0,0.5,0,0.7,0.1
		c1.1,0.5,2.9-0.2,3.1,1.5C108.5,114.8,107.2,114.6,106.5,114.6z M143.7,237.7c-0.9,0.7-1.6,1.9-3,2.2c-0.4,0.1-0.8-0.1-0.9-0.5
		c-0.1-0.2,0-0.4,0.1-0.6c0.6-1.3,1.8-2.2,3.1-2.3C143.5,236.4,143.9,236.8,143.7,237.7L143.7,237.7z M189.4,164.4
		c-0.8-0.2-2.2,0.3-2.1-1s1.6-0.8,2.5-0.8c0.7-0.1,1.9-0.3,1.9,0.8C191.7,165,190.2,164.2,189.4,164.4L189.4,164.4z"/>
	<path class="st8" d="M255.6,261.6h0.5c0.8,2,0.4,4.2,1.6,6.1c0.5,0.6,0.4,1.5-0.2,2c-0.2,0.2-0.5,0.3-0.7,0.3L255.6,261.6
		L255.6,261.6z"/>
	<path class="st3" d="M121.5,116.5c0.9,0.4,2.2,0.4,2.4,1.8c0.1,0.5-0.3,0.9-0.8,1c-0.2,0-0.3,0-0.5-0.1c-0.9-0.4-2.4-0.1-2.5-1.6
		C120.1,116.8,120.8,116.6,121.5,116.5L121.5,116.5z"/>
	<path class="st10" d="M32.9,192.1l0.4-0.7c0.9,3.3,1.7,6.7,1,10.1C33.7,198.4,32.9,195.3,32.9,192.1L32.9,192.1z"/>
	<path class="st3" d="M164.9,164.2c-0.8,0.1-1.6,0-2.4-0.4c0.5-1.1-1.5-3,0.1-3.4c2-0.5,1.6,2,2.2,3.2
		C164.9,163.8,164.9,164,164.9,164.2L164.9,164.2z"/>
	<path class="st4" d="M232.9,177c1.4,1.8,2,3.8,1,6C233,181.2,232.6,179.1,232.9,177z"/>
	<path class="st3" d="M73.6,251.3c-0.2,0.8-0.7,1.2-1.4,1s-1.9-0.4-1.9-1.6c0-0.5,0.4-0.9,0.9-0.9c0.1,0,0.2,0,0.4,0.1
		C72.5,250.1,73.4,250.4,73.6,251.3z M139.1,137.4l-0.6-0.6c0.2-0.8-0.6-2.1,1-2.3c0.8-0.1,1.2,0.6,1.4,1.3
		C141.1,137.3,140.2,137.4,139.1,137.4L139.1,137.4z M156.7,146.5c1,0.2,1.3,1.1,1.5,2c0.1,0.4-0.2,0.8-0.6,0.9h-0.3
		c-0.9-0.1-1.7-0.8-1.7-1.8C155.5,146.9,156,146.5,156.7,146.5L156.7,146.5z"/>
	<path class="st10" d="M131.3,224.9l1.9-1.2c0.9,0.7,2.1,1.1,2.4,2.4C134.1,226.1,132.8,225.3,131.3,224.9L131.3,224.9z"/>
	<path class="st4" d="M235.1,189.6c1.1,2.1-0.7,3-1.7,4.2C233.6,192.3,234.2,190.8,235.1,189.6z M233.9,166.2c1.2,1.4,0.3,2.3-0.9,3
		C232.7,168.1,233,167,233.9,166.2z"/>
	<path class="st13" d="M51.6,142c-0.7,2.5-1.6,1.4-2.5,0.1C49.7,141.4,50.9,141.3,51.6,142z"/>
	<path class="st4" d="M234.2,185.4c1.6,0.6,2,1.6,0.9,3C234.5,187.5,234.1,186.5,234.2,185.4z"/>
	<path class="st10" d="M123.5,229.2c0.2-0.8,1-1.3,1.8-1.2C125,228.7,124.3,229.2,123.5,229.2z"/>
	<path class="st11" d="M297.9,197.9c-0.5-0.7-0.6-1.5-0.3-2.2C298.1,196.3,298.2,197.2,297.9,197.9z"/>
	<path class="st10" d="M117.5,232.6c0.1-1.2,1-1,1.8-1L117.5,232.6z M47.2,205.2c0.6,0.2,0.7,0.7,0.7,1.3L47.2,205.2L47.2,205.2z
		 M48.4,207.6c0.6,0.2,0.7,0.7,0.7,1.2L48.4,207.6z M49.1,208.8c0.5,0.2,0.7,0.7,0.6,1.2C49.3,209.8,49.1,209.3,49.1,208.8z
		 M50.9,211.8c0.6,0.2,0.7,0.7,0.6,1.3C51.1,212.8,50.8,212.3,50.9,211.8z M125.9,227.5c0.2-0.5,0.7-0.7,1.2-0.6
		C126.9,227.2,126.4,227.5,125.9,227.5z M122.3,230c0.1-0.6,0.6-0.8,1.2-0.8L122.3,230z M119.3,231.6c0.2-0.4,0.7-0.7,1.2-0.6
		L119.3,231.6z"/>
	<path class="st11" d="M230.9,198.1c0,0.4-0.2,0.8-0.6,1C230.3,198.7,230.3,198.3,230.9,198.1z"/>
	<path class="st10" d="M49.7,210c0.2,0.3,0.4,0.5,0.6,0.8C50.1,210.6,49.9,210.3,49.7,210z M50.3,211.2l0.6,0.7L50.3,211.2z
		 M129,225.1c0.1-0.4,0.3-0.5,0.6-0.1l-0.3,0.1H129z M128.4,225.8l0.6-0.8L128.4,225.8z M127.1,226.8l0.7-0.6L127.1,226.8z
		 M125.3,228l0.6-0.6L125.3,228z M120.5,231c0.1-0.3,0.3-0.4,0.6-0.2C120.9,230.9,120.7,231,120.5,231z"/>
	<path class="st11" d="M230.1,199.7l-0.4,0.5L230.1,199.7z"/>
	<path class="st6" d="M244.7,127.8c-0.1-0.1-0.2-0.3-0.3-0.4l0.2-0.2C244.7,127.4,244.7,127.6,244.7,127.8L244.7,127.8z"/>
	<path class="st8" d="M46.7,144.5l-0.6,0.7L46.7,144.5z"/>
	<path class="st5" d="M174.6,201l0.4,1.3c-0.2,0.8-0.4,1.5-0.6,2.3l0.1-0.1c-0.5,0-0.7,0.2-0.6,0.7v-0.1c-2.6,1.4-4.6,3.5-6.9,5.1
		c-1.3,0.9-2.4,2.5-4.4,2.2c-0.5-1.1,1.3-2.6-0.2-3.2c-1.8-0.6-1.6,1.6-2.3,2.5c-0.2,0.2-0.3,0.5-0.4,0.8c-4.4-1.2-9-1.7-13.1-3.7
		c-2.2-2.9-1.5-5.7-0.2-8.8c0.8-1.8,1.2-3.8,1.4-5.7c0.3-3.8,1.2-6.9,5.3-8.1c0.5-0.2,0.8-0.6,0.9-1.1c5.2,0.4,10.2,1.8,14.9,4
		c1.1,0.5,1.6,1.8,2.1,2.9c1,2.2,2.1,4.5,3.1,6.7c0.1,0.5,0.1,1,0.7,1.3l-0.1-0.1C174.4,200.2,174.5,200.6,174.6,201L174.6,201z
		 M165.9,198c1.4-0.8,0.7-2.4,1.2-3.6c0.2-0.5-0.1-1.1-0.6-1.3c-0.2-0.1-0.3-0.1-0.5-0.1c-1.8,0.5-0.9,2.4-1.4,3.6
		C164.3,197.2,164.9,197.8,165.9,198L165.9,198z M162.7,204.3c-0.2,0.8-0.1,1.8,0.6,1.8c1.8,0,1.4-1.8,1.9-2.9
		c0.4-0.8,0.1-1.9-0.8-1.8C162.6,201.3,163.4,203.3,162.7,204.3z"/>
	<path class="st8" d="M153.6,185c0,0.5-0.4,1-0.9,1.1c-4.1,1.2-5,4.4-5.3,8.1c-0.1,2-0.6,3.9-1.4,5.7c-1.3,3-1.9,5.9,0.2,8.8
		c-1,0.2-2,0.1-2.9-0.3c-3.3-0.9-6.7-1.8-10-2.5s-6.4,1.9-5.7,4.7c-0.9,0.6-0.5,1.6-0.9,2.4c-1.5,0.1-3,0.2-2.2-2.2
		c0.5-1.6-0.8-2.2-2-2.7c2.2-2.8,4.1-5.9,5.6-9.1c2.9-6.7,3.7-14.1,2.3-21.3c1.5,1.9,1.2,4.2,1.4,6.5c0.1,1-1,3.2,1.2,2.9
		c1.6-0.3,2.6-1.7,2.4-3.3c0-0.2-0.1-0.4-0.2-0.6c-0.6-1.8-0.5-3.1,1.5-3.7c3.8,2.9,8.7,2.8,13,4.3C151.1,184,152.6,183.8,153.6,185
		L153.6,185z"/>
	<path class="st6" d="M311.7,233.4c2.5-0.3,5,0.3,7.5-0.4c0.9-0.2,1.8,0.2,2.2,1.1c-1.7-0.6-2.5-0.2-2.3,1.9c0.2,2.2,0.2,4.3,0,6.5
		c-0.2,2.3,0.9,2.7,2.8,2.4c0.7-0.1,1.4-0.2,2-0.4l3.3-1.2c0.5,1.2-0.3,1.9-1.1,2.4c-5.5,3.2-14.9-0.1-17.8-4.1
		c-1-1.3-1.3-2.9-0.9-4.5c1,1.9,1.9,4,4.5,4.7L311.7,233.4z M127.7,210.6c-0.7-2.8,2.3-5.4,5.7-4.7s6.7,1.6,10,2.5
		c0.9,0.4,1.9,0.5,2.9,0.3c4.1,2.1,8.7,2.5,13.1,3.7c1,0.9,2,0.6,3-0.1c2,0.3,3-1.3,4.4-2.2c2.3-1.6,4.4-3.8,6.9-5.1
		c-0.3,2.7-2.6,3.9-4.4,5.3c-1.3,1-2.8,1.9-4,3.1c-2,2-4.3,2.3-7.1,1.5c-8.4-2.3-16.9-4.4-25.4-6.5
		C130.5,207.8,129,208.8,127.7,210.6L127.7,210.6z"/>
	<path class="st3" d="M323.9,244.5c-0.7,0.1-1.4,0.3-2,0.4c-1.9,0.3-3-0.1-2.8-2.4c0.2-2.2,0.2-4.3,0-6.5c-0.2-2,0.6-2.4,2.3-1.9
		c1.9,1.3,4.1,2,5.4,4C324.6,239.7,325.1,242.6,323.9,244.5z"/>
	<path class="st5" d="M311.7,233.4v8.5c-2.6-0.7-3.5-2.8-4.5-4.7C307.7,234.6,309.8,234.2,311.7,233.4z"/>
	<path class="st0" d="M323.9,244.5c1.2-2,0.8-4.8,3-6.4c1.3,1.2,2,2.6,1.2,4.4c-0.4,0.2-0.8,0.4-0.7,0.9l-0.2-0.2L323.9,244.5
		L323.9,244.5z"/>
	<path class="st6" d="M174.4,204.5c0.2-0.8,0.4-1.5,0.6-2.3C176.2,203.4,175.1,203.9,174.4,204.5z M286.6,220.2l1,1.1
		C287,221.2,286.7,220.8,286.6,220.2z"/>
	<path class="st8" d="M136,177c-0.6-0.4-0.5-0.8,0-1.2C136.1,176.2,136.1,176.6,136,177z"/>
	<path class="st6" d="M174.4,199.9c-0.6-0.2-0.6-0.8-0.7-1.3C174.4,198.8,174.5,199.3,174.4,199.9z M174.6,201
		c-0.1-0.4-0.2-0.7-0.3-1.1C175,200.1,175.2,200.4,174.6,201z M327.3,243.5c0-0.5,0.3-0.7,0.7-0.9C328,243,327.7,243.4,327.3,243.5z
		 M173.8,205.1c0-0.5,0.2-0.7,0.6-0.7L173.8,205.1z"/>
	<path class="st5" d="M284.7,218.2c-3.3-1.6-6.9-1.5-10.3-2.6c-1.6-9.2-2.2-18.6-3.2-27.9c-0.2-2.1-0.2-3.1,2.6-2.1
		c5.8,2.1,10.4,6.4,12.9,12c0.3,0.7,0.8,1.4,1.2,2.1c0.8,4.5,1.9,9,1.8,13.7c0,2.4-0.3,4.2-3.3,3.7
		C285.6,217.1,284.9,217.5,284.7,218.2L284.7,218.2z"/>
	<path class="st8" d="M265.8,37.3l0.6-0.6c1.9-0.8,3.8-1.4,5.5,0.3c2,1.8,1.6,3.9,0.7,6c-0.2,0.2-0.3,0.4-0.5,0.6
		c-1.8,0.5-3.8,0.4-5.6-0.1l-0.6-0.5C265.1,41.2,264.7,39.3,265.8,37.3z M291.5,265.2c-1.5-0.4-1.5-1-0.4-1.9
		C291.5,263.8,291.7,264.5,291.5,265.2z"/>
	<path class="st10" d="M289.7,259.2c-0.8-0.4-0.6-1.1-0.6-1.8C289.8,257.8,289.7,258.5,289.7,259.2z M291,262.8
		c-0.8-0.5-0.7-1.3-0.6-2C290.8,261.4,291,262.1,291,262.8z M289.1,257.4c-0.5-0.2-0.7-0.7-0.6-1.2
		C289.1,256.4,289.1,256.8,289.1,257.4z M290.3,260.4c-0.4-0.3-0.6-0.8-0.6-1.2C290.2,259.4,290.3,259.9,290.3,260.4z M269.6,268.7
		c-0.3-0.2-0.8-0.5-0.8-0.7c-0.1-4.1-0.1-8.3-0.1-12.5c1.1,1.9,0.4,4,0.6,6v2.4l0.3,1.2C269.8,266.3,269.9,267.5,269.6,268.7z
		 M268.7,254.4c-1.3-1.5-0.4-3.2-0.6-4.8C269.2,251,268.6,252.8,268.7,254.4z M275.1,261c0.9,0.3,0.8,1.1,0.8,1.8
		C275.2,262.4,275.3,261.6,275.1,261z M272.8,255.6c0.6,0.3,0.6,0.8,0.6,1.4C273,256.7,272.7,256.1,272.8,255.6z M273.4,257.3
		c0.5,0.3,0.7,0.8,0.6,1.4L273.4,257.3z"/>
	<path class="st13" d="M269.6,265.1l-0.3-1.2C269.7,264.2,269.8,264.7,269.6,265.1z"/>
	<path class="st10" d="M268.7,255v-0.7C269.3,254.6,269.1,254.8,268.7,255z"/>
	<path class="st13" d="M269.3,262.2v-0.7c0.1,0.2,0.1,0.3,0.2,0.5C269.5,262.1,269.4,262.2,269.3,262.2z"/>
	<path class="st10" d="M166.7,97.8c0,1.8,0,3.6-0.1,5.4c-1.1-3.3-1.1-6.9,0-10.3C166.7,94.6,166.7,96.2,166.7,97.8L166.7,97.8z"/>
	<path class="st9" d="M167.2,90.7c0-1.2,0.4-2.4,1.2-3.3C168.5,88.7,168.8,90,167.2,90.7z M183,103.2c0.7,0.4,1.2,1.1,1.3,1.8
		l-1.4-0.6L183,103.2L183,103.2z M182.2,99.1c0.1,0.8,0.1,1.6,0.2,2.3C181.4,100.7,181.5,99.9,182.2,99.1z M182.3,101.4
		c0.5,0.4,0.8,1.1,0.6,1.8C182.2,102.8,182.3,102.1,182.3,101.4z M166.6,93c-0.2-0.7,0.1-1.5,0.6-2.1
		C167.2,91.7,167.5,92.5,166.6,93z"/>
	<path class="st10" d="M166.6,103.2c0.9,0.5,0.8,1.1,0.1,1.8C166.7,104.4,166.7,103.8,166.6,103.2z"/>
	<path class="st8" d="M193.2,88.8c5.2,0,9.5,4.3,9.5,9.6c-0.1,5.2-4.3,9.5-9.6,9.6c-5.2-0.2-9.4-4.4-9.5-9.6
		C183.7,93,187.9,88.8,193.2,88.8z M182.9,104.4l1.4,0.6c0.3,0.4,0.7,0.8,1,1.2l0.6,0.6l0.6,0.6c0.2,0.4,0.4,0.9,0.6,1.3
		C184.4,108.5,182.3,107.8,182.9,104.4L182.9,104.4z"/>
	<path class="st9" d="M187.1,108.6c-0.2-0.4-0.4-0.8-0.6-1.3c0.8,0.1,1.4,0.5,1.9,1.1l-0.2,0.2H187.1z M185.9,106.8l-0.6-0.6
		L185.9,106.8z M186.5,107.4l-0.6-0.6L186.5,107.4z"/>
	<path class="st8" d="M187.1,108.6h1.2c-0.1,0.3-0.3,0.9-0.5,0.9C187.2,109.7,187.2,109,187.1,108.6z M74.2,158.4
		c2.9-0.8,6,0.1,8,2.4c1.8,1.8,4.1,0.3,6-0.1c2.4-0.5,4.3-0.5,6,1.3c0.9,0.9,2,0.8,3.1,0.8s2.3,0,2.9,1.1c1.4,2.6,3.6,2.2,5.6,1.3
		c1.7-0.7,2.7-0.2,4.3,0.5c3.1,1.4,5.4,4.1,9.1,4.4c2,0.2,4.3,0.2,5.9,2.2c0.8,1.1,1.2-0.1,1.4-0.9c1.5,2.5,2.3,5.4,2.3,8.4V190
		l0.1,0.1l-0.1,0.1c-2.6,0.2-4.5,2.8-7.2,2.2c-1.8-0.4-3-0.4-3.8,1.6c-0.5,1.4-5.7,1.6-5.6,0.5c0.2-3.1-2.3-3.4-4.1-4.4
		c1.6-5.8,1.1-11.1-3.7-15.3c-6.5-5.7-17-5.1-21.9,5.4c-0.6,0.3-0.6,0.9-0.6,1.5c0.1,0.1,0.1,0.2,0.1,0.3c-1-0.1-2,0.1-2.9,0.6
		c-3.6,2-7.6,2-11.6,1.8c-0.9,0.1-1.8-0.6-1.9-1.5c-0.1-0.8,0.1-2-1.2-1.9c-1.6,0-1.1,1.4-1.2,2.2c-0.1,0.4,0,0.8-0.9,0.9
		c-0.9-2.6,0.9-5.1,0.3-7.7c-0.1-0.1-0.1-0.2,0-0.3c0.8-0.4,0.7-1.2,0.7-1.9c0.8-0.4,0.6-1.1,0.6-1.8c0.6-0.3,0.6-0.8,0.6-1.4
		c0-0.1,0-0.3,0.1-0.4l0.5-0.9C67.2,165,70.3,161.2,74.2,158.4L74.2,158.4z M69.3,180.6c1.5,0,2.7-0.3,2.5-1.9s-0.8-2.9-2.8-2.9
		c-1.8,0.1-1.9,1.3-2,2.7C67,180.3,67.9,180.8,69.3,180.6L69.3,180.6z"/>
	<path class="st14" d="M64.7,170.4c-0.1,0.1-0.1,0.3-0.1,0.4c-0.2,0.5-0.4,0.9-0.6,1.4c-0.5,0.4-0.8,1.1-0.6,1.8
		c-0.7,0.5-0.6,1.2-0.7,1.9c-0.1,0.1-0.1,0.2,0,0.3c-0.2,0.4-0.4,0.9-0.6,1.3c-3.3,13.4,2.3,27.8,14.6,36
		c15.5,10.3,36.4,6.1,46.8-9.3c1.2-1.7,2.2-3.6,3-5.5c1.5-2.6,2.4-5.5,2.5-8.5l0.1-0.1L129,190c1-3.3,1-6.9,0-10.2
		c0-2.9-0.8-5.8-2.3-8.4c0-0.1,0-0.2-0.1-0.3c0-0.5-0.2-1-0.6-1.3c0-0.5-0.2-1-0.6-1.2l-0.6-0.9c-0.6-1.7-1.6-3.3-3-4.5V162
		c1.6-0.1,2.1,1.3,2.8,2.3c2.6,3.2,3.9,7.1,5.4,10.8c-0.1,0.8,0.1,1.5,0.6,2.1c-0.1,0.1-0.1,0.2-0.1,0.3c1.4,7.2,0.5,14.6-2.3,21.4
		c-1.5,3.3-3.3,6.3-5.6,9.2c-2.1,2-4.3,3.9-6.4,5.9l-1.2,0.8l-4.1,2.4c-0.5,0-1,0.2-1.3,0.6c-0.5,0-1,0.1-1.2,0.6
		c-0.7-0.1-1.4,0.1-1.8,0.6c-0.7,0-1.4,0-1.8,0.6c-0.8-0.2-1.5,0.1-2.1,0.6h-0.8c-4.4,0.5-8.8,0.5-13.2-0.1l-0.7-0.2l-3.6-0.8
		l-0.1-0.1l-0.1,0.1c-0.4-0.4-0.9-0.7-1.5-0.6c-0.3-0.4-0.8-0.7-1.3-0.6l-2.7-1.2l-0.9-0.6c-0.3-0.4-0.7-0.7-1.2-0.6l-2.3-1.7
		c-0.2-0.4-0.7-0.7-1.2-0.7c-0.2-0.6-0.8-0.6-1.2-0.7l-0.5-0.5c-0.2-1.1-0.9-1.9-1.9-2.4l-0.6-0.6l-0.6-0.6l-0.6-0.6l-0.6-1.1
		l-0.6-0.9l-0.6-0.6c0-0.5-0.2-1-0.7-1.2l-0.6-0.9c0-0.1,0-0.2-0.1-0.3c-0.6-1-1.2-2-1.7-3c0.1-0.5-0.2-1-0.6-1.3
		c-1.6-5.5-2.8-11.1-2.4-16.9c0.1-1.6,0.8-3,0.7-4.6c1.7-6.5,5-12.5,9.6-17.3c7.9-7.1,16.9-11,27.8-9.7c-5.1,1-10.4,1.3-15.3,3.2
		l-0.7,0.4c-2.9,1.1-5.5,2.7-7.8,4.8c-4,2.8-7.1,6.7-9,11.2L64.7,170.4L64.7,170.4z"/>
	<path class="st8" d="M133.2,178.7c-0.2-0.3-0.5-0.4-0.5-0.6s0.1-0.6,0.3-0.7c0.4-0.2,0.7,0.2,0.7,0.6
		C133.6,178.1,133.4,178.3,133.2,178.7z M130.6,177.3c-0.5-0.6-0.7-1.4-0.6-2.1C130.9,175.6,130.7,176.5,130.6,177.3z M125.3,168.6
		c0.4,0.3,0.6,0.7,0.6,1.2C125.5,169.6,125.2,169.1,125.3,168.6z M121.7,162v1.2C121.1,162.8,121.1,162.4,121.7,162z M126,169.8
		c0.4,0.3,0.6,0.8,0.6,1.3C126.1,170.8,125.8,170.3,126,169.8z M124.8,167.7l0.6,0.9L124.8,167.7z M82,153.6l0.7-0.4L82,153.6z"/>
	<path class="st4" d="M251.8,210.8c-2-0.3-4.2-0.1-6-1.3C247.8,209.7,250.2,208.4,251.8,210.8z M257.2,212c-1.8-0.7-4,0.5-5.5-1.3
		C253.7,210.3,255.7,210.8,257.2,212z M245.8,209.6c-1.2,0-2.5-0.2-3.6-0.7C243.7,207.6,244.8,208.2,245.8,209.6z"/>
	<path class="st10" d="M56.9,208.6c0,3.7-1,4.9-3.2,4c-1.1-0.5-1.8-1.1-1.3-2.5c0.3-0.9,0.6-1.9,0.8-2.9c0.3-1.3,0.3-2.8,2.2-2.5
		s1.5,1.8,1.6,3C56.9,208,56.9,208.3,56.9,208.6z M88.8,220c4.4,0.6,8.8,0.6,13.2,0.1C97.8,222.1,92.9,222.1,88.8,220z M63,199.7
		c0.6,1,1.2,2,1.7,3c-0.6,0.2-1,0.7-1.1,1.3c-0.2,0.7-0.5,1.2-1.2,0.7c-0.4-0.2-0.6-0.7-0.4-1.2c0.1-0.1,0.2-0.3,0.3-0.3
		C63.7,202.3,62.8,200.9,63,199.7z M34.9,195.7c0.7-1,1.4-1.5,2.4-1.1c0.3,0.2,0.4,0.6,0.3,0.9c0,0,0,0.1-0.1,0.1
		C36.8,196.4,35.9,196.3,34.9,195.7z M74.3,213.6l2.5,1.8C75,216.1,74,215.8,74.3,213.6z M84.5,218.9l3.6,0.8
		C86.6,220.5,85.4,220.5,84.5,218.9z M69.6,209.4c1,0.5,1.7,1.3,1.9,2.4C70.3,211.4,69.3,210.9,69.6,209.4z M104.9,219.5
		c0.4-0.7,1.1-0.6,1.8-0.6C106.3,219.7,105.6,219.6,104.9,219.5z"/>
	<path class="st10" d="M106.7,218.9c0.5-0.5,1.2-0.8,1.8-0.6C108.1,219.1,107.3,219,106.7,218.9z M102.8,220.1
		c0.5-0.6,1.3-0.8,2.1-0.6C104.4,220.4,103.5,220.1,102.8,220.1z M65.3,204c0.4,0.2,0.7,0.7,0.7,1.2C65.5,205,65.3,204.5,65.3,204z
		 M71.9,212.2c0.5,0.1,1.1,0,1.2,0.7C72.6,213,72.2,212.9,71.9,212.2z M115.1,214.8l1.2-0.8C116.1,214.6,115.7,214.8,115.1,214.8z
		 M76.7,215.3c0.5,0,1,0.2,1.2,0.6C77.4,216,77,215.9,76.7,215.3z M109.7,217.7c0.3-0.4,0.8-0.6,1.3-0.6
		C110.7,217.6,110.2,217.9,109.7,217.7z M81.5,217.7c0.5,0,1,0.2,1.3,0.6C82.2,218.5,81.7,218.2,81.5,217.7z"/>
	<path class="st10" d="M108.5,218.3c0.2-0.5,0.7-0.6,1.2-0.6C109.5,218.2,109,218.4,108.5,218.3z M82.7,218.3
		c0.6-0.1,1.1,0.1,1.5,0.6C83.6,219,83.1,219,82.7,218.3z M73.2,212.9c0.5,0,0.9,0.2,1.2,0.7C73.8,213.6,73.4,213.5,73.2,212.9z"/>
	<path class="st8" d="M59.1,189.2c-0.1,0-0.2-0.1-0.2-0.1c0-0.1,0-0.2,0.1-0.2s0.2,0.1,0.2,0.1S59.1,189.1,59.1,189.2z"/>
	<path class="st10" d="M62.4,198.5c0.4,0.3,0.7,0.8,0.6,1.3C62.4,199.5,62.3,199,62.4,198.5z M68.9,208.7l0.6,0.6L68.9,208.7z
		 M64.8,203.1l0.6,0.9L64.8,203.1z M77.9,216l0.9,0.6L77.9,216z M68.4,208.1l0.6,0.6L68.4,208.1z M67.8,207.5l0.6,0.6L67.8,207.5z
		 M67.2,206.7l0.6,0.9L67.2,206.7z M66,205.1l0.6,0.6L66,205.1z"/>
	<path class="st3" d="M165.9,197.9c-1-0.1-1.6-0.7-1.3-1.4c0.6-1.2-0.4-3.1,1.4-3.6c0.5-0.1,1.1,0.3,1.1,0.9c0,0.2,0,0.3-0.1,0.5
		C166.6,195.5,167.3,197.1,165.9,197.9L165.9,197.9z M162.7,204.2c0.7-0.9-0.2-2.9,1.7-2.9c0.9,0,1.2,1,0.8,1.8
		c-0.5,1-0.1,2.8-1.9,2.9C162.6,206,162.5,205,162.7,204.2L162.7,204.2z M162.5,212.4c-1,0.7-2,1-3,0.1c0.1-0.3,0.3-0.5,0.4-0.8
		c0.7-0.9,0.6-3.1,2.3-2.5C163.8,209.8,162,211.3,162.5,212.4L162.5,212.4z"/>
	<path class="st9" d="M126.6,198.6c-7.3,17.1-27.2,25-44.3,17.7c-1.9-0.8-3.7-1.8-5.4-2.9c-12.3-8.2-17.9-22.6-14.6-36
		c0.2-0.5,0.4-0.9,0.6-1.3c0.6,2.6-1.2,5.1-0.3,7.7c0.9-0.1,0.8-0.5,0.9-0.9c0.2-0.9-0.3-2.2,1.2-2.2c1.4,0,1.1,1.1,1.2,1.9
		c0.1,0.9,0.9,1.6,1.9,1.5c4,0.2,7.9,0.2,11.5-1.8c0.9-0.4,1.9-0.6,2.9-0.6c0,0.9-0.1,1.8-0.1,2.7c0.1,5.7,2.7,10,7.9,12.3
		c4.7,2.3,10.3,1.6,14.3-1.8c1.8-1.4,2.6-3.5,4-5.1c1.8,1.1,4.2,1.3,4.1,4.4c-0.1,1.1,5.1,0.9,5.6-0.5c0.8-2,2-2,3.8-1.6
		c2.7,0.6,4.6-2,7.2-2.2C128.9,193.1,128,196,126.6,198.6c0-1.7-0.2-3.4-2.2-3.6s-2.5,1.4-2.8,3.1c-0.2,0.8-0.4,1.5-0.8,2.2
		c-0.2,0.6-0.4,1.2,0.3,1.6c0.6,0.3,1.3,0,1.6-0.6c0-0.1,0.1-0.1,0.1-0.2C123.2,199.5,124.9,198.4,126.6,198.6L126.6,198.6z
		 M127.5,193.6c-0.2-0.1-0.4-0.2-0.5-0.2s-0.1,0.3-0.2,0.5c0.2,0.1,0.4,0.2,0.5,0.2S127.4,193.8,127.5,193.6z"/>
	<path class="st14" d="M108.4,189.9c-1.5,1.6-2.2,3.8-4,5.1c-4,3.4-9.6,4.1-14.3,1.8c-5.2-2.4-7.8-6.6-7.9-12.3
		c0-0.9,0.1-1.8,0.1-2.7c0.1-0.1,0-0.2-0.1-0.3c0.4-0.4,0.6-1,0.6-1.5c4.9-10.5,15.4-11.1,21.9-5.4
		C109.5,178.8,110,184.2,108.4,189.9L108.4,189.9z M83.7,184.7c-0.1,6.6,5.2,11.9,11.8,12h0.1c6.6-0.1,12-5.3,12.2-11.9
		c0.2-6.6-5-12-11.6-12.2h-0.5C88.7,172.6,83.7,177.6,83.7,184.7L83.7,184.7z"/>
	<path class="st9" d="M69.3,180.6c-1.4,0.2-2.3-0.3-2.2-2.1c0.1-1.4,0.2-2.6,2-2.7c2-0.1,2.6,1.3,2.8,2.9S70.8,180.6,69.3,180.6
		L69.3,180.6z M129,179.7c1,3.3,1,6.9,0,10.2V179.7z M63.5,174c-0.1-0.7,0.1-1.4,0.6-1.8C64.1,172.8,64.3,173.6,63.5,174z"/>
	<path class="st9" d="M62.8,175.8c0-0.7,0-1.4,0.7-1.9C63.5,174.7,63.6,175.4,62.8,175.8z M64.1,172.2c0.2-0.5,0.4-0.9,0.6-1.4
		C64.7,171.4,64.7,171.9,64.1,172.2z M82.8,180c0,0.6-0.2,1.1-0.6,1.5C82.1,180.9,82.2,180.3,82.8,180z M64.7,170.4l0.5-0.9
		L64.7,170.4z"/>
	<path class="st8" d="M126.6,198.6c-1.7-0.2-3.3,0.9-3.8,2.6c-0.2,0.6-0.8,1-1.5,0.9c-0.1,0-0.1,0-0.2-0.1c-0.7-0.3-0.5-1-0.3-1.6
		c0.3-0.7,0.6-1.5,0.8-2.2c0.3-1.7,0.7-3.3,2.8-3.1S126.6,196.9,126.6,198.6L126.6,198.6z M127.5,193.6c-0.1,0.2-0.1,0.4-0.2,0.5
		s-0.3-0.1-0.5-0.2c0.1-0.2,0.1-0.4,0.2-0.5S127.3,193.6,127.5,193.6z M83.7,184.7c0-7.1,5-12.1,12-12.1c6.6-0.1,12,5.1,12.1,11.7
		v0.5c-0.2,6.6-5.6,11.9-12.2,11.9S83.7,191.4,83.7,184.7L83.7,184.7L83.7,184.7z"/>
</g>
</svg>
