<svg xmlns="http://www.w3.org/2000/svg" viewBox="0 0 497.8 497.78"><g data-name="Layer 2"><g data-name="Layer 1"><path d="M21.35 99.56h90.72l50.64 50.64a21.33 21.33 0 0 0 30.17 0l50.63-50.64h233a21.34 21.34 0 1 0 0-42.67h-233L192.88 6.25a21.33 21.33 0 0 0-30.17 0l-50.64 50.64H21.35a21.34 21.34 0 1 0 0 42.67ZM177.8 51.5l26.72 26.72L177.8 105l-26.72-26.78ZM476.45 227.56h-90.72l-50.65-50.64a21.33 21.33 0 0 0-30.17 0l-50.64 50.64H21.34a21.33 21.33 0 1 0 0 42.66h233l50.64 50.64a21.32 21.32 0 0 0 30.16 0l50.65-50.64h90.71a21.33 21.33 0 1 0 0-42.66ZM320 275.61l-26.72-26.72L320 222.17l26.72 26.72ZM476.45 398.22H243.5l-50.64-50.64a21.33 21.33 0 0 0-30.17 0l-50.63 50.64H21.33a21.34 21.34 0 0 0 0 42.67h90.73l50.64 50.64a21.33 21.33 0 0 0 30.17 0l50.64-50.64h233a21.34 21.34 0 1 0 0-42.67Zm-298.67 48-26.72-26.72 26.72-26.72 26.72 26.72Z"/></g></g></svg>