<svg xmlns="http://www.w3.org/2000/svg" width="18.473" height="18.48" viewBox="0 0 18.473 18.48"><path d="M119.649,187.687l-1.515-.142a7.092,7.092,0,0,0-.533-1.73l1.174-.97a.721.721,0,0,0,.1-1.016l-1.481-1.793a.721.721,0,0,0-1.016-.1l-1.174.97a7.09,7.09,0,0,0-1.6-.845l.142-1.515a.724.724,0,0,0-.647-.789l-2.32-.221a.724.724,0,0,0-.789.652l-.142,1.515a6.977,6.977,0,0,0-1.725.533l-.97-1.174a.721.721,0,0,0-1.016-.1l-1.8,1.486a.721.721,0,0,0-.1,1.016l.97,1.174a7.091,7.091,0,0,0-.845,1.6l-1.515-.142a.724.724,0,0,0-.789.652l-.221,2.32a.716.716,0,0,0,.652.783l1.515.142a7.092,7.092,0,0,0,.533,1.73l-1.174.97a.721.721,0,0,0-.1,1.016l1.486,1.8a.721.721,0,0,0,1.016.1l1.174-.97a7.09,7.09,0,0,0,1.6.845L108.4,197a.724.724,0,0,0,.647.789l2.32.221a.725.725,0,0,0,.789-.652l.142-1.515a7.091,7.091,0,0,0,1.73-.533l.97,1.174a.721.721,0,0,0,1.016.1l1.8-1.486a.721.721,0,0,0,.1-1.016l-.97-1.174a7.089,7.089,0,0,0,.845-1.6l1.515.142a.716.716,0,0,0,.783-.652l.221-2.32a.733.733,0,0,0-.658-.789Zm-6.156,4.011a3.8,3.8,0,1,1,.5-5.35,3.8,3.8,0,0,1-.5,5.35Z" transform="translate(-101.837 -179.537)" fill="#a9a9a9"/></svg>