<svg xmlns="http://www.w3.org/2000/svg" width="15.759" height="15.759" viewBox="0 0 15.759 15.759">
  <g transform="translate(-122.505 -52.498)">
    <path
      d="M138.264,56.337a3.838,3.838,0,0,0-3.839-3.839h-8.081a3.838,3.838,0,0,0-3.839,3.839v8.081a3.838,3.838,0,0,0,3.839,3.839h8.081a3.838,3.838,0,0,0,3.839-3.839Zm-1.212,0v8.081a2.627,2.627,0,0,1-2.627,2.627h-8.081a2.627,2.627,0,0,1-2.627-2.627V56.337a2.627,2.627,0,0,1,2.627-2.627h8.081a2.627,2.627,0,0,1,2.627,2.627Z"
      transform="translate(-0.001)" fill-rule="evenodd" />
    <path
      d="M250.655,282.707l-2.843-2.273a2.221,2.221,0,0,0-3.049.259l-5.446,6.126a.606.606,0,1,0,.907.8l5.445-6.126a1.01,1.01,0,0,1,1.386-.117l2.842,2.274a.607.607,0,1,0,.758-.947Z"
      transform="translate(-112.619 -219.57)" fill-rule="evenodd" />
    <path
      d="M131.2,233.364l-3.456-3.142a2.223,2.223,0,0,0-2.829-.133l-2.164,1.623a.606.606,0,0,0,.727.97l2.164-1.623a1.01,1.01,0,0,1,1.286.061l3.456,3.142a.606.606,0,0,0,.816-.9Z"
      transform="translate(0 -171.011)" fill-rule="evenodd" />
    <path d="M259.094,117.882a1.212,1.212,0,1,1-1.212-1.212,1.212,1.212,0,0,1,1.212,1.212"
      transform="translate(-129.519 -61.949)" fill-rule="evenodd" />
  </g>
</svg>