<svg xmlns="http://www.w3.org/2000/svg" width="40" height="40" viewBox="0 0 40 40">
  <g transform="translate(-2167.5 -2691.5)">
    <circle cx="20" cy="20" r="20" transform="translate(2167.5 2691.5)" fill="#e8e8fa" />
    <path
      d="M98.131,31.469a15.809,15.809,0,0,1-2.2-2.74,1.051,1.051,0,0,1,.006-1.156l.894-1.38a1.042,1.042,0,0,0,.1-.959l-1.538-4.1a1.068,1.068,0,0,0-1.581-.527l-2.146,1.371a2.642,2.642,0,0,0-1.164,2.881,19,19,0,0,0,5.144,9.086,19,19,0,0,0,9.086,5.144,2.641,2.641,0,0,0,2.881-1.164l1.371-2.146a1.068,1.068,0,0,0-.527-1.581l-4.1-1.538a1.042,1.042,0,0,0-.959.1l-1.38.894a1.052,1.052,0,0,1-1.156.006,15.82,15.82,0,0,1-2.74-2.2Z"
      transform="translate(2087.815 2681.813)" fill="#565cdc" fill-rule="evenodd" />
  </g>
</svg>