<svg xmlns="http://www.w3.org/2000/svg" width="15.916" height="17.302" viewBox="0 0 15.916 17.302">
  <path
    d="M87.483-.023l5.546.315a.574.574,0,0,1,.514.426l1.567,5.6a.623.623,0,0,1-.123.565l-7.65,10.171a.546.546,0,0,1-.791.1L79.43,11.235a.614.614,0,0,1-.094-.831L87.013.2a.548.548,0,0,1,.47-.226Zm3.88,3.08a2.435,2.435,0,0,1,.367,3.315,2.166,2.166,0,0,1-3.154.386,2.439,2.439,0,0,1-.37-3.315,2.22,2.22,0,0,1,1.5-.884,2.186,2.186,0,0,1,1.655.5Z"
    transform="translate(-79.216 0.024)" fill-rule="evenodd" />
</svg>